<?xml version="1.0" encoding="UTF-8" standalone="no"?>
<svg
   height="178.57pt"
   viewBox="0 0 501.91 238.09"
   width="376.43pt"
   version="1.1"
   id="svg160"
   sodipodi:docname="369c46bc-5aad-4a0f-820d-1844e5c3e8b2.svgz"
   xmlns:inkscape="http://www.inkscape.org/namespaces/inkscape"
   xmlns:sodipodi="http://sodipodi.sourceforge.net/DTD/sodipodi-0.dtd"
   xmlns="http://www.w3.org/2000/svg"
   xmlns:svg="http://www.w3.org/2000/svg">
  <defs
     id="defs160" />
  <sodipodi:namedview
     id="namedview160"
     pagecolor="#ffffff"
     bordercolor="#000000"
     borderopacity="0.25"
     inkscape:showpageshadow="2"
     inkscape:pageopacity="0.0"
     inkscape:pagecheckerboard="0"
     inkscape:deskcolor="#d1d1d1"
     inkscape:document-units="pt" />
  <g
     fill="none"
     id="g26">
    <g
       stroke="#b2b2b2"
       stroke-dasharray=".666667 .666667 .666667 .666667"
       stroke-width=".66667"
       id="g23">
      <path
         d="m45.94 211.97h372.2"
         id="path1" />
      <path
         d="m45.94 217.17h372.2"
         id="path2" />
      <path
         d="m45.94 206.87h372.2"
         id="path3" />
      <path
         d="m45.94 15.466h372.2"
         id="path4" />
      <path
         d="m45.94 41.366h372.2"
         id="path5" />
      <path
         d="m45.94 191.27h372.2"
         id="path6" />
      <path
         d="m45.94 160.27h372.2"
         id="path7" />
      <path
         d="m45.94 118.97h372.2"
         id="path8" />
      <path
         d="m45.94 67.166h372.2"
         id="path9" />
      <path
         d="m45.94 175.77h372.2"
         id="path10" />
      <path
         d="m45.94 144.77h372.2"
         id="path11" />
      <path
         d="m45.94 93.066h372.2"
         id="path12" />
      <path
         d="m79.77 222.37v-206.9"
         id="path13" />
      <path
         d="m113.65 222.37v-206.9"
         id="path14" />
      <path
         d="m147.45 222.37v-206.9"
         id="path15" />
      <path
         d="m181.25 222.37v-206.9"
         id="path16" />
      <path
         d="m215.15 222.37v-206.9"
         id="path17" />
      <path
         d="m248.95 222.37v-206.9"
         id="path18" />
      <path
         d="m282.75 222.37v-206.9"
         id="path19" />
      <path
         d="m316.65 222.37v-206.9"
         id="path20" />
      <path
         d="m350.45 222.37v-206.9"
         id="path21" />
      <path
         d="m384.25 222.37v-206.9"
         id="path22" />
      <path
         d="m418.15 222.37v-206.9"
         id="path23" />
    </g>
    <g
       stroke="#000"
       stroke-linecap="round"
       stroke-linejoin="round"
       stroke-width="1.2"
       id="g25">
      <path
         d="m45.94 165.77h378.7"
         id="path24" />
      <path
         d="m45.94 69.076h378.6"
         id="path25" />
    </g>
  </g>
  <text
     x="18.95079"
     y="124.10197"
     id="text26"><tspan
       font-family="Arial"
       font-size="10"
       id="tspan26">10</tspan></text>
  <text
     x="29.502483"
     y="118.37229"
     id="text27"><tspan
       font-family="Arial"
       font-size="6.667"
       id="tspan27">20</tspan></text>
  <text
     x="18.89879"
     y="98.241966"
     id="text28"><tspan
       font-family="Arial"
       font-size="10"
       id="tspan28">10</tspan></text>
  <text
     x="29.450483"
     y="92.512291"
     id="text29"><tspan
       font-family="Arial"
       font-size="6.667"
       id="tspan29">25</tspan></text>
  <text
     x="18.95079"
     y="72.371971"
     id="text30"><tspan
       font-family="Arial"
       font-size="10"
       id="tspan30">10</tspan></text>
  <text
     x="29.502483"
     y="66.642296"
     id="text31"><tspan
       font-family="Arial"
       font-size="6.667"
       id="tspan31">30</tspan></text>
  <text
     x="18.89879"
     y="46.541969"
     id="text32"><tspan
       font-family="Arial"
       font-size="10"
       id="tspan32">10</tspan></text>
  <text
     x="29.450483"
     y="40.812294"
     id="text33"><tspan
       font-family="Arial"
       font-size="6.667"
       id="tspan33">35</tspan></text>
  <text
     x="18.95079"
     y="20.641968"
     id="text34"><tspan
       font-family="Arial"
       font-size="10"
       id="tspan34">10</tspan></text>
  <text
     x="29.502483"
     y="14.912292"
     id="text35"><tspan
       font-family="Arial"
       font-size="6.667"
       id="tspan35">40</tspan></text>
  <g
     fill="none"
     id="g50">
    <g
       stroke="#000"
       stroke-width=".9998"
       id="g39">
      <path
         d="m45.94 15.466v208.5"
         id="path35" />
      <path
         d="m43.35 222.37h374.8"
         id="path36" />
      <path
         d="m113.65 223.97v-1.64"
         id="path37" />
      <path
         d="m181.25 223.97v-1.64"
         id="path38" />
      <path
         d="m384.25 223.97v-1.64"
         id="path39" />
    </g>
    <g
       stroke-dasharray="10.667733 1.066667 10.667733 1.066667"
       stroke-width="1.0667"
       id="g43">
      <path
         d="m45.940482 222.36583 2.146-.1857c9.994-.9457 20-1.863 30-2.784l1.707-.1545m338.199998-31.12h6.465m-12.61.5879.0973-.0309h.1953l.0487-.0309h.2438l.0488-.0309h.244l.0488-.0311h.3903l.0485-.0309h.244l.0485-.0309h.2926l.049-.0309h.39l.0488-.0309h.1953l.0975-.0309h.195l.0488-.0312h.3903l.0485-.0309h.2443l.0482-.0309h.2444l.0484-.0309h.3904l.0975-.0309h.1465l.0485-.0309h.2441l.0487-.0312h.3901l.0975-.0309h.1463l.0487-.0309h.3901l.0978-.0309h.1465m-48.33 4.455.1947-.0309h.1465l.1463-.0309h.0978l.2925-.0312.1466-.0309h.1947l.2929-.0309.0977-.0309h.146l.1466-.0309h.4875l.2926-.0309.244-.0312.5851-.0618.1466-.0309h.195l.146-.0309h.4878l.1466-.0309.2925-.0309.5854-.0617h.2434l.5854-.0618.2443-.0309.2926-.0312.1463-.0309h.4872l.1466-.0309.244-.0309.5851-.0618h.3903l.1463-.0312.2438-.0309.0978-.0309h.39l.2438-.0309.1463-.0309h.1465l.2438-.0309h.2441l.2435-.0312.1465-.0309h.146l.2444-.0309h.2434l.4879-.0618.2441-.0308h.2434l.2444-.0312.2435-.0309.2438-.0309h.244l.4876-.0618h.2441l.2437-.0309.2438-.0309.2441-.0309h.2438l.1953-.0309.2435-.0309h.244l.2438-.0309.195-.0309h.2441l.2438-.0312.195-.0309h.2441l.195-.0309.2438-.0309h.2437l.1953-.0309.2435-.0309h.2929l.0978-.0312.1462-.0309h.341l.2444-.0308.1947-.0309h.1953l.2435-.0309.1953-.0309h.1953l.2438-.0312.2438-.0309h.195l.0975-.0309h.2926l.2443-.0309.1948-.0309h.244l.1948-.0309.1953-.0309h.1953l.0972-.0309h.2928l.2438-.0309.1953-.0309h.195l.0975-.0309h.2929l.2435-.0309.195-.0312h.1953l.0975-.0309h.2925l.3901-.0618h.1953l.0975-.0309h.3416l.0487-.0309h.4391l.0975-.0311.0975-.0309h.2438l.0975-.0309h.2926l.0975-.0309h.2925l.3903-.0618h.1466l.0975-.0312h.2925l.0976-.0309h.2925l.3906-.0618h.146l.0975-.0309h.2925l.0491-.0309h.341l.0978-.0312h.244l.0976-.0309h.2437l.0975-.0309h.2926l.1465-.0309.1953-.0309h.1948l.0487-.0309h.2926l.049-.0309h.2928l.0973-.0309h.2437l.0978-.0309h.2438l.0975-.0309h.2438l.0975-.0309h.2925l.0491-.0309h.2928l.0485-.0311h.2925l.0491-.0309h.2925l.0975-.0309h.1953l.0972-.0309h.2441l.0975-.0309h.2438l.0487-.0309h.2926l.0975-.0312h.1953l.0972-.0309h.2444l.0975-.0309h.2435l.049-.0309h.2435l.0978-.0309h.2441l.0975-.0309h.195l.0975-.0312h.2438l.0975-.0309h.3901l.0978-.0309h.195l.0978-.0309h.2438l.0487-.0309h.2438l.0487-.0309h.2441l.0975-.0309h.2438l.0488-.0309h.3903l.0485-.0309h.2925m-331.999998 30.53 1.609-.1548c5.609-.4878 11.22-1.05 16.83-1.547l1.366-.1236 1.413998-.1239c7.391-.7058 14.8-1.349 22.19-2.042l1.317-.1239 1.268-.1236c4.449-.3994 8.92-.8183 13.36-1.238l1.804-.1545 1.756-.1548c2.569-.2386 5.136-.4804 7.706-.7114l2.78-.2475 1.366-.1236 1.317-.1239 1.268-.1239 1.22-.0926 2.341-.2163 2.292-.2169 2.195-.1856 2.049-.1857 2-.1854 1.902-.1857 1.854-.1856 1.756-.1545 1.707-.1548 1.658-.1545.7807-.0618c1.444-.1808 3.056-.2781 4.536-.4025l.8291-.0927.9267-.093c2.04-.1652 4.123-.394 6.145-.5567l.8294-.0927.7317-.0618.6828-.0621 1.17-.1236 1.024-.0926 1.073-.0927.5366-.0621.5366-.0309.9754-.0927 1.024-.093.585-.0309.5854-.0618.6828-.0621c1.481-.1406 2.954-.3092 4.438-.4328l.6341-.0618.5363-.0621c.7806-.0643 1.692-.0964 2.439-.2166l.4879-.0308.5366-.0618c1.264-.0332 2.493-.2642 3.756-.3093l.5366-.0618.4388-.0312c.6216-.1057 1.452-.1542 2.097-.2165l.3903-.0309.4875-.0309.4879-.0618 1.122-.093 1.073-.0927.5366-.0618.4391-.0309.39-.0312.3413-.0309 1.171-.1236.6832-.0618.39-.0309.4878-.062.9267-.0927.9751-.093.4394-.0309.39-.0309.3413-.0309.2926-.0309.5365-.0312.4879-.0309.2435-.0309.3418-.0309.7314-.0618.8291-.0927.8294-.0618.8292-.0929 1.512-.1548 1.512-.1236.7313-.0621.7807-.0927.7316-.0618.6341-.0618.2926-.0309h.195l.4391-.0618.39-.0311h.2438l.2441-.0309.5853-.0618 1.366-.1239.6339-.0618 1.219-.1239 1.219-.0927 2.341-.2165 2.244-.2163 2.146-.1857 2.049-.1857 1.951-.1856.9751-.0927.9266-.0618.9267-.093.8779-.0927 1.756-.1547 1.707-.1548 1.658-.1548.7807-.0927 2.341-.1854.7314-.0929 2.195-.1857.3413-.0309.3416-.0309.2925-.0309.3904-.0309.4388-.0312.4875-.0618.4391-.0618.4388-.0309.6832-.0618.6338-.0309.6831-.0618.6336-.062.8779-.0927.3418-.0309.3901-.0309.4388-.0621.7804-.0618.3418-.0309.2926-.0309.5363-.0312 1.17-.1236.5366-.0621h.2925l.2929-.0308.3412-.0309.7804-.0618.3416-.0309.2925-.0309.2438-.0309.2441-.0309.2925-.0309.3413-.0309 1.024-.093.2929-.0309.2435-.0309.4878-.0309.4876-.0621h.2443l.2435-.0309.2925-.0309.3901-.0309h.3418l.2926-.0309.2435-.0309h.2443l.195-.0311.2438-.0309.2926-.0309.2928-.0309.3413-.0309.2925-.0309.4878-.0618.8779-.0618h.1953l.2435-.0309.5854-.0621.2925-.0309.2928-.0309.2438-.0309h.3906l.2435-.0309.5366-.0621.5366-.0618.5851-.0618h.2928l.2438-.0309.1953-.0311h.3901l.1953-.0309.2435-.0309h.2925l.2928-.0309.2438-.0309.3903-.0621h.195l.1951-.0309.4878-.0618.4876-.0309.7806-.0618.4879-.0309.4873-.0618.4878-.0618.4388-.0312.3419-.0309.39-.0309.4388-.0309.4879-.0309.439-.062.4388-.0309.6826-.0618.4391-.0618.4388-.0312.8782-.0618h.1463l.1953-.0309h.1462l.1463-.0309.39-.0618.4388-.0309.8295-.0618.4388-.0618.3903-.0312h.1465l.146-.0309h.2929l.39-.0309.39-.0617.7804-.0621.7804-.0618h.1466l.1462-.0309.0975-.0309h.1463l.3416-.0309.39-.0312.7316-.0618.3413-.0618.3901-.0309.7319-.0621.6826-.0618.244-.0309h.2926l.3413-.0309.3415-.0309.6341-.0617 1.366-.1239 1.268-.1236.6335-.0621.6344-.0618.8779-.0927h.3413l.5854-.0621.5853-.0618.5851-.0617.5854-.0309.5365-.0618.5854-.0618.5851-.0309.5363-.0621.5369-.0618.5363-.0309.5366-.0621.5363-.0309.5366-.0618.4878-.0618.5364-.0312.244-.0309.2438-.0308.2925-.0309h.3416l.4879-.0618.4878-.0309.4873-.0621.4878-.0309.4388-.0618.4879-.0309.5853-.0618.2441-.0309h.195l.4876-.0618.4388-.0312h.1953l.2437-.0309.2926-.0309.2928-.0309.2438-.0309h.195l.4391-.0309.3903-.062.2438-.0309h.2925l.2438-.0309.1953-.0309.4388-.0309h.1953l.1948-.0312.2443-.0309.2926-.0309.195-.0309h.195l.1953-.0309h.4388l.2925-.0309.3901-.0618.1953-.0309h.1947l.2444-.0309h.4388l.5853-.093.1948-.0309h.2443l.7801-.0618.1953-.0309.2435-.0309.3904-.0311.195-.0309h.244l.3901-.0309h.1463l.39-.0618.2444-.0309.1459-.0312h.1951l.195-.0309h.2441l.1462-.0309h.195l.1954-.0309h.2437l.1953-.0309h.1463l.1463-.0309h.195l.195-.0309h.4388l.1466-.0309.39-.0618.3413-.0312.3903-.0309.3416-.0309.3901-.0309.3413-.0309.1953-.0309h.1947l.1466-.0309h.1462l.195-.0309h.1954l.3412-.0311.3904-.0309.3413-.0309.6828-.0618.1466-.0309h.1463l.1947-.0312h.1953l.1463-.0309h.3415l.1948-.0309.1953-.0309.1463-.0309h.4388l.1953-.0309.1465-.0312h.146l.195-.0309h.1953l.3416-.0309.2925-.0309.3411-.0309.1953-.0309h.1465l.0972-.0309h.1463l.1466-.0309h.195l.3416-.0309.2925-.0309.1465-.0308h.1948l.2928-.0309.2925-.0312.1463-.0309h.195l.2928-.0309h.2926l.2925-.0309"
         stroke="#ab417f"
         id="path40" />
      <path
         d="m45.940482 222.36583 2.146-.4023c10-1.828 20-3.666 30-5.506l1.707-.3095m338.299998-62.27h6.465m-12.76 1.145.1463-.0311.1463-.0309h.1465l.146-.0309.1466-.0309.1462-.0309.1466-.0309.146-.0309.1465-.0309.146-.0309h.1465l.1463-.0309.0975-.0309h.0973l.049-.0309h.0487l.1466-.0312.0975-.0309h.0972l.0488-.0309h.049l.1463-.0309.0975-.0309h.195l.1466-.0309.1463-.0312.1462-.0309.1463-.0309.1465-.0309h.146l.1466-.0309.1462-.0309.1466-.0311.146-.0309.1465-.0309h.0975l.146-.0309.1466-.0309.1462-.0309.1463-.0312.1463-.0309.1465-.0309h.0973l.1462-.0309.1466-.0309.146-.0309.1465-.0309h.0978m-48.33 8.878.1947-.0309.2928-.0618h.0978l.2925-.062.1466-.0309.1947-.0309.2929-.0618.0977-.0309h.146l.1466-.0312.1947-.0309.5854-.1236.244-.0309.5851-.1236.1466-.0309.195-.0312.146-.0309h.1465l.1953-.0618.146-.0309h.1466l.2925-.062.5854-.1236.2434-.0309.2929-.0621.2925-.0309.2443-.0618.2926-.0618.1463-.0312h.1462l.195-.0618.146-.0309h.1466l.244-.0618.2926-.0618.2925-.0309.2441-.0618.1462-.0311h.1463l.2438-.0618.0978-.0309h.0972l.1466-.0309.1462-.0309.2438-.0312.1463-.0309.1465-.0309.2438-.0309.2441-.0618.2435-.0312.2925-.0618.2444-.0309.2434-.0618.2441-.0309.2438-.0618.2441-.0309.2434-.0617.2444-.0312.2435-.0618.2438-.0309.244-.0618.2438-.0312.2438-.0618.4878-.0618.2438-.0621.2441-.0309.2438-.0618.1953-.0309.2435-.0309.244-.0618.2438-.0308.195-.0309.2441-.0621.2438-.0309.195-.0618.2441-.0309.195-.0309.2438-.0621.2437-.0309.1953-.0309.2435-.0309.1953-.0618.0976-.0312h.0978l.2925-.0618.0975-.0309h.0972l.2444-.0309.1947-.0308.1953-.0621.2435-.0309.3906-.0618.2438-.0618.2438-.0309.195-.0309.1953-.0618.1948-.0309.2443-.0312.1948-.0309.244-.0618.1948-.0309.1953-.0309.1953-.0312.1947-.0618.1953-.0308.2438-.0309.1953-.0309.195-.0312.1951-.0618.1953-.0309.2435-.0309.195-.0309.1953-.0309.195-.0618.195-.0309.3901-.0618.1953-.0312.2438-.0618.1953-.0309.1462-.0309.1951-.0309.1465-.0311h.0975l.0975-.0309h.0485l.1953-.0309.1948-.0618.1953-.0309.1953-.0312.1947-.0309.3903-.0618.1466-.0309.195-.0309.195-.0621.3901-.0618.3906-.0618.146-.0309.39-.0618h.0491l.195-.0618.146-.0309.0978-.0311h.0487l.3904-.0618.1462-.0309.3901-.0618.1465-.0312.3901-.0618.1462-.0309.0978-.0309h.0973l.1465-.0309.1953-.0312.1948-.0309.1462-.0309.1951-.0618h.1465l.1953-.0618.146-.0309h.195l.0978-.0309.0972-.0309.1466-.0309.0975-.0309h.0978l.146-.0311.0975-.0309h.0975l.1466-.0309.0978-.0309h.0972l.1463-.0309.1465-.0309.0972-.0312h.0978l.1463-.0309.0975-.0309h.0972l.2929-.0618.0978-.0309h.0972l.1465-.0312.1463-.0309.0972-.0309h.2444l.195-.0618h.146l.1465-.0309.146-.0311.0978-.0309h.0975l.1466-.0309.0975-.0309h.0978l.0482-.0309h.049l.0975-.0309h.0978l.146-.0309.0975-.0309h.0975l.0491-.0309h.0487l.0975-.0309h.0973l.2928-.0618.0978-.0312h.0972l.1466-.0309.1462-.0309h.1463l.1463-.0309.1465-.0309.0975-.0309h.0975l.1463-.0312.1466-.0309.1459-.0309.2929-.0618.0972-.0309h.0975m-331.999998 61.13 1.609-.3093c5.611-1.029 11.23-2.039 16.83-3.093l1.366-.2475 1.413998-.2784c7.419-1.299 14.79-2.716 22.19-4.052l1.317-.2475 1.268-.2474c4.452-.8204 8.914-1.617 13.36-2.444l1.804-.3404 1.756-.3093c2.56-.466 5.131-.9978 7.706-1.423l2.78-.5258 1.366-.2474 1.317-.2478 1.268-.2163 1.22-.2474 2.341-.4023 2.292-.4331 2.195-.4022 2.049-.402 2-.3713 1.902-.3402 1.854-.3404 1.756-.3093 1.707-.3093 1.658-.3095.7807-.1545c1.531-.2259 2.997-.5825 4.536-.8354l.8291-.1544.9267-.1857c2.017-.3376 4.137-.7382 6.145-1.114l.8294-.1544.7317-.1239.6828-.1236.5851-.1239.5853-.0927 1.024-.2165 1.073-.1857 1.073-.1854.9754-.1857 1.024-.1856.585-.093.5854-.1236.6828-.1236c1.475-.2781 2.957-.5383 4.438-.8045l.6341-.1236.5363-.0929c.7407-.1494 1.709-.362 2.439-.4641l.4879-.0927.5366-.0926c1.239-.2245 2.517-.4683 3.756-.6809l.5366-.0927.4388-.0927c.7095-.0989 1.399-.2687 2.097-.3714l.3903-.0926.4875-.093.4879-.0927 1.122-.2163 1.609-.2786.4391-.0927.39-.0621.3413-.0618.5853-.1239.5854-.0927.6832-.1236.39-.0618.4878-.0929.9267-.1857.9751-.1548.4394-.0927.39-.0618.3413-.0618.2926-.0618.5365-.0929.4879-.0927.2435-.0618.3418-.0621.7314-.1236 2.488-.464 3.024-.557.7313-.1236.7807-.1545.7316-.1239.6341-.1239.2926-.0618.195-.0309.4391-.0929.39-.0618.2438-.0309.2441-.0621.5853-.0927 1.366-.2472.6339-.1238 1.219-.2475 1.219-.2166 2.341-.4331 2.244-.4022 2.146-.402 2.049-.3713 2.926-.5568.9266-.1547 1.805-.3402 1.756-.3095 1.707-.3093 1.658-.3093.7807-.1547.7804-.1236 1.561-.3093.7314-.1239.7316-.1235.7316-.1548.7316-.1239.3413-.0618.3416-.0621.2925-.0618.3904-.0618.4388-.0926.4875-.0927.4391-.0621.4388-.0927.6832-.1239.6338-.1236.6831-.1238.6336-.1236.5853-.0927.2926-.0621.3418-.0618.3901-.0618.4388-.093.3903-.0927.3901-.0621.3418-.0617.2926-.0618.5363-.093 1.17-.1854.5366-.0927.5854-.1239.3412-.0618.3901-.0929.3903-.0618.3416-.0618.2925-.0621.2438-.0309.2441-.0309.2925-.0618 1.366-.2475.2929-.0618.2435-.0309.4878-.0929.4876-.0927.2443-.0309.2435-.0621.2925-.0618.3901-.0618.3418-.0621.2926-.0618.2435-.0618.2443-.0309.195-.0309.2438-.0618.5854-.1238.3413-.0309.2925-.0618.4878-.093.4388-.0618.4391-.093.1953-.0309.2435-.0618.5854-.1236.2925-.0309.2928-.0617.2438-.0309.1953-.0621.1953-.0309.2435-.0309.5366-.093.5366-.0927.5851-.1239.2928-.0309.2438-.0618.1953-.0309.3901-.062.1953-.0309.2435-.0618.2925-.0618.2928-.0309.2438-.0618.3903-.0618.195-.0312.1951-.0309.9754-.1857.3906-.0926.39-.0621.9752-.1854.4878-.0927.4388-.0618.3419-.0621.39-.0618.4388-.093.4879-.0926.439-.093.4388-.0618.6826-.1239.8779-.1854.4394-.0927.4388-.0618.1463-.0311.1953-.0309.2925-.0618.39-.093.4388-.0618.8295-.1239.4388-.0927.3903-.0618.1465-.0309.146-.0309.2929-.0618.39-.0929 1.17-.1857.3901-.0927.3903-.0618.2928-.0621h.0975l.1463-.0309.3416-.0618.39-.0618.7316-.1547 1.463-.2475.6826-.1236.244-.0621.2926-.0618.6828-.1238.6341-.1236.6829-.1236.6826-.093 1.902-.3713.6344-.1236.5854-.0927.2925-.0618.3413-.0621.5854-.0927.2925-.0618.2928-.0621.5851-.0927.5854-.1238.5365-.0927.2926-.0621.2928-.0618.5851-.0927.5363-.0927.5369-.0927.2435-.062.2928-.0618.5366-.093 1.073-.1857.4878-.0927.5364-.0927.244-.0309.2438-.0618.2925-.0618.3416-.062.2438-.0618.2441-.0309.4878-.093.4873-.0927.4878-.0621.4388-.0927.4879-.093.5853-.1235.2441-.0309.195-.0309.2438-.0309.2438-.0618.4388-.093.1953-.0309.2437-.0309.5854-.1239.2438-.0309.195-.0309.2441-.0618.5853-.0929.2438-.0618.2925-.0618.2438-.0309.1953-.0309.2435-.0618.1953-.0309.3901-.0621.2443-.0309.2926-.0618.195-.0618.195-.0312.3901-.0618.244-.0618.2925-.0309.1951-.0311.195-.0309.1953-.0309.1947-.0618.2444-.0621.2435-.0309.39-.0618.3906-.0618.1948-.0618.2443-.0309.3901-.0618.39-.0621.1953-.0618.2435-.0309.3904-.0618.195-.062.244-.0309.3901-.0618.1463-.0309.1953-.0312.1947-.0618.2444-.0309.1459-.0309.1951-.0309.195-.0618.2441-.0309.1462-.0309.195-.0309.1954-.0309.2437-.0312.1953-.0309.2926-.0618.195-.0308.195-.0621.2438-.0309.195-.0309.1466-.0309.39-.0618.3413-.0621.1953-.0618.195-.0309.3416-.0621.3901-.0618.3413-.0618.39-.0618.2928-.0617.195-.0618.1954-.0309.1465-.0312h.1947l.1954-.0309.195-.0618.3413-.0618.3415-.0621.3413-.0618.2929-.0618.1947-.0312.1953-.0309.2925-.0618.1953-.0309.1948-.0308.3416-.0618.2928-.0618.146-.0309.1953-.0309.2925-.0621.195-.0309.1953-.0309.3416-.0618.2925-.0621.3411-.0618.1953-.0309.1465-.0309.0972-.0312h.1463l.1466-.0309.195-.0308.3416-.0618.2925-.0621.1465-.0309.1948-.0309.2928-.0618.2925-.0309.1463-.0309.195-.0309.5854-.1236.2925-.0621"
         stroke="#009035"
         id="path41" />
      <path
         d="m45.940482 222.36583 2.146-.7733c9.944-3.721 19.99-7.379 30-11.04l1.707-.6497m338.299998-124.5h6.465m-344.799998 124.5 1.609-.5877c5.6-2.071 11.22-4.126 16.83-6.187l1.366-.4949 1.413998-.5261c7.424-2.695 14.78-5.459 22.19-8.167l1.317-.4947 1.268-.4643c4.418-1.669 8.953-3.24 13.36-4.918l1.804-.6497 1.756-.6494c2.568-.9448 5.134-1.91 7.706-2.846l2.78-1.021 1.366-.4949 1.317-.495 1.268-.464 1.22-.464 2.341-.866 2.292-.8354 2.195-.8042 2.049-.7733 2-.7115 1.902-.7115 1.854-.6808 1.756-.6495 1.707-.6185 1.658-.6188.7807-.2783c1.536-.5205 2.99-1.174 4.536-1.67l.8291-.3095.9267-.3402c2.077-.7242 4.079-1.537 6.145-2.258l.8294-.3095.7317-.2784.6828-.2474.5851-.2166.5853-.1857 1.024-.371 1.073-.4023.5366-.1856.5366-.2166.9754-.3711 1.024-.3713 1.17-.4328.6828-.2478c1.456-.5391 3.007-1.087 4.438-1.639l.6341-.2168.5363-.1854c.7642-.3121 1.652-.6449 2.439-.9281l.4879-.1856.5366-.2166c1.282-.4263 2.48-.9182 3.756-1.361l.5366-.1857.4388-.1548c.6576-.244 1.441-.5672 2.097-.7733l.3903-.1547.9754-.3711 1.122-.4022 1.073-.402.5366-.1856.4391-.1548.39-.1548.3413-.1236 1.171-.4331.6832-.2475.39-.1545.4878-.1547.9267-.3714.9751-.3401.4394-.1548.39-.1545.3413-.1239.2926-.1238.5365-.1854.7314-.2784.3418-.1239.7314-.2783.8291-.2784 1.659-.6188 3.024-1.113.7313-.2787.7807-.2783.7316-.2475.6341-.2475.2926-.0927.195-.0929.4391-.1548.39-.1545.4879-.1857.5853-.2165.6826-.2166.6831-.2472.6339-.2477 2.439-.9281 2.341-.866 2.244-.8045 2.146-.8041 2.049-.7424 1.951-.7115.9751-.3714.9266-.3401 1.805-.6806 1.756-.6188.8779-.3399 1.658-.6191.8291-.2781.7807-.3095 2.341-.8351 2.195-.8354.7316-.2474.6829-.2475.2925-.1236.3904-.1548.4388-.1547.4875-.1857.8779-.3093.6832-.2474.6338-.2475.6831-.2475.6336-.2165.5853-.2166.2926-.1236.3418-.1239.3901-.1544.4388-.1548.3903-.1548.3901-.1236.3418-.1238.2926-.0927.5363-.2166 1.17-.4331.5366-.1854.2925-.093.2929-.1236.3412-.1239.3901-.1547.3903-.1236.3416-.1239.2925-.0927.2438-.1236.2441-.093.2925-.0927.3413-.1238.3416-.1548.6828-.2472.2929-.093.7313-.2783.4876-.1548.4878-.1857.2925-.1236.3901-.1235.3418-.1239.2926-.1239.4878-.1857.195-.0618.2438-.0927.5854-.2474.3413-.0927.2925-.1239.4878-.1857.4388-.1547.4391-.1545.1953-.0618.2435-.0927.2929-.093.585-.2474.2928-.093.2438-.0927.3906-.1236.2435-.0927.5366-.1857.5366-.2168.5851-.2166.2928-.0927.2438-.0927.1953-.0927.3901-.1238.1953-.0927.2435-.093.5853-.1857.2438-.0927.1953-.0927.195-.0618.195-.062.1951-.0927.9754-.3714.3906-.1547.39-.1236.4879-.1545.4873-.1857.4878-.1857.4388-.1856.3419-.1236.39-.1239.4388-.1548.4879-.1856.439-.1854.4388-.1548.6826-.2474.8779-.3093.4394-.1857.4388-.1545.1463-.062.1953-.0618.1462-.0309.1463-.0618.39-.1548.4388-.1548.8295-.3092.4388-.1548.3903-.1545.2925-.1239.1466-.0309.1463-.062.39-.1236.39-.1545.7804-.2787.3901-.1547.3903-.1236.2928-.1236.0975-.0309.1463-.0618.3416-.1239.39-.1548.7316-.2783.7314-.2475.3903-.1548.3416-.1236.6826-.2477.244-.0927.2926-.0927.6828-.2474.6341-.2475.6829-.2478.6826-.2471.6341-.2475.6344-.2166.6335-.2474.6344-.2166.5854-.2166.2925-.1238.3413-.1236 2.341-.8663.5365-.1854 1.17-.4331.5363-.1857.2443-.1239.2926-.0927.5363-.1856.2438-.1236.2928-.093.5363-.1857.5366-.1854.4878-.1856.5364-.1857.4878-.1857.2925-.1236.3416-.1238.4879-.1854.4878-.1548.4873-.1857.4878-.1856.4388-.1854.2441-.0618.2438-.093.2928-.0927.2925-.1238.2441-.0927.195-.093.2438-.0927.2438-.0618.4388-.1548.1953-.0927.2437-.0929.5854-.1857.2438-.0927.195-.093.4391-.1545.1953-.0618.195-.0927.2438-.0929.2925-.0927.2438-.093.1953-.0618.4388-.1548.1953-.0618.1948-.0927.2443-.0927.2926-.0929.195-.0927.195-.0621.1953-.0618.1948-.0927.244-.093.2925-.0927.1951-.0929.585-.1854.4879-.1857.1953-.0927.1947-.0621.3906-.1236.1948-.0929.2443-.0927.1948-.0618.1953-.0618.39-.1548.1953-.0927.2435-.0621.3904-.1547.195-.0927.244-.0618.3901-.1239.1463-.0618.1953-.0927.1947-.0927.2444-.062.1459-.0618.1951-.0618.195-.0621.2441-.0927.1462-.093.195-.0618.1954-.0927.2437-.0618.1953-.0618.1463-.062.1463-.0618.195-.0618.195-.093.2438-.0618.195-.0618.1466-.0621.39-.1548.3413-.1235.3903-.1236.3416-.1239.3901-.1545.3413-.1239.1953-.0929.1947-.0618.1466-.0618.1462-.0309.195-.0618.1954-.0927.3412-.1239.3904-.1239.3413-.1545.3415-.1238.3413-.1239.2929-.1236.39-.1236.1463-.0309.1462-.0621.1953-.0618.1948-.0927.3416-.1238.4388-.1857.1953-.0618.1465-.0309.146-.0618.195-.0618.1953-.093.3416-.1235.2925-.093.3411-.1239.1953-.0618.1465-.0618.0972-.0618.1463-.0621.1466-.0618.195-.0618.3416-.1235.2925-.093.1465-.0618.1948-.0618.2928-.1239.2925-.093.1463-.0618.195-.0617.2928-.1236.2926-.0927.2925-.1239m-.0005 0 .1947-.0618.1465-.0312.1463-.0309.0978-.0618.2925-.1239.1466-.0617.1947-.0618.2929-.1236.0977-.0621.146-.0309.1466-.0309.1947-.0618.2928-.1239.2926-.0927.244-.0929.2926-.1236.2925-.1239.1466-.0618.195-.0309.2925-.1236.0978-.0309.0975-.0312.2926-.1236.2925-.0929.2928-.1236.2926-.093.2434-.0927.2929-.0927.2925-.1239.2443-.0927.2926-.0929.2925-.1236.195-.0621.2926-.1236.244-.093.5851-.1854.2441-.0926.2925-.1239.2438-.0927.0978-.0312.0972-.0309.1466-.0309.1462-.0618.0973-.0621.1465-.0618.1463-.0618.1465-.0309.2438-.0926.2441-.0927.2435-.093.1465-.0618.146-.0309.7319-.2787.2438-.0926.2441-.093.2434-.0927.2444-.0927.2435-.0927.2438-.093.244-.0618.2438-.093.2438-.0926.2441-.093.2437-.0927.2438-.0927.2441-.0618.2438-.093.1953-.0927.2435-.0929.244-.0618.2438-.0927.195-.093.2441-.0927.2438-.0621.195-.0927.2441-.0927.195-.0618.2438-.0929.2437-.0927.1953-.0618.2435-.093.1953-.0927.1954-.0621.1462-.0309.1463-.0618.0975-.0618.0972-.0309.2444-.0618.0975-.0618.0972-.0311.1953-.0618.0975-.0618.146-.0309.1953-.0621.0975-.0618.0978-.0309.2438-.0621.2438-.0927.195-.0929.1953-.0618.0973-.0618.0975-.0309.2443-.0618.0975-.0618.0973-.0309.244-.0621.0975-.0618.0973-.0309.1953-.0618.0975-.0621.0978-.0309.39-.1238.2438-.0927.1953-.0927.195-.0618.1951-.0618.0977-.0621.0976-.0309.2435-.0618.0977-.0618.0973-.0312.3903-.1236.0975-.062.0975-.0309.1953-.0618.1948-.0618.0978-.0621.0975-.0309.2438-.0618.1953-.0618.0487-.0618.0975-.0309.1951-.0618.1465-.0621.0975-.0308.0975-.0309.0485-.0309.1953-.0621.1948-.0618.0978-.0618.0975-.0309.1953-.0621.1947-.0618.0978-.0618.2925-.0927.1466-.0618.195-.062.195-.0618.1953-.0618.0976-.0621.0972-.0309.3906-.1236.146-.0621.0975-.0618.2925-.0927.0491-.0309.195-.0618.146-.0311.0978-.0309.0487-.0309.1953-.0618.0976-.0618.0975-.0309.1462-.0621.3901-.1236.1465-.0621.1953-.0618.1948-.0618.1462-.062.0978-.0618.0973-.0309.1465-.0618.1953-.0618.1948-.0618.1462-.0621.1951-.0618.1465-.0618.1953-.0621.146-.0618.195-.0618.195-.062.1466-.0618.1953-.0618.146-.0618.195-.0618.1466-.0618.0978-.0621.0972-.0309.0975-.0309h.0488l.1465-.0618.195-.0621.1463-.0618.0975-.0309.0972-.0309.1466-.062.1463-.0618.0978-.0309.0972-.0309.1465-.0621.1463-.0618.0972-.0309.0978-.0309.1466-.0618.195-.0618.146-.0618.1465-.0621.146-.0618.1953-.0618h.0491l.0975-.0308.0975-.0621.0978-.0309.0482-.0309h.049l.1953-.0618.146-.0621.195-.0618.0978-.0618.1948-.0618.1465-.0618.1463-.0618.195-.0621.1466-.0309.1462-.0617.1463-.0621.1463-.0618.1465-.0618.195-.0621.1463-.0309.1466-.0618.2925-.1239.1463-.0618.1947-.0618m.001 0 .1463-.0308.1463-.0618.1465-.0618.146-.0621.1466-.0618.1462-.0309.1466-.0618.146-.0621.1465-.0618.146-.0309.1465-.0621.1463-.0618.0975-.0308.0973-.0309.049-.0309h.0487l.1466-.0618.1947-.0618.0488-.0309h.049l.1463-.0621.0975-.0309.0972-.0309.0978-.0618.1466-.0309.1463-.0621.1462-.0618.1463-.0618.1465-.0312.146-.0617.1466-.0618.1462-.0309.1466-.0621.146-.0618.1465-.0309.0975-.0618.146-.0618.1466-.0309.1462-.0618.1463-.0621.1463-.0309.1465-.0618.0973-.062.1462-.0309.1466-.0618.146-.0618.1465-.0312.0978-.0618"
         stroke="#009ee0"
         id="path42" />
      <path
         d="m45.940482 222.36583 2.146-.9899c10.01-4.58 19.97-9.202 30-13.77l1.707-.8042m338.299998-155.7h6.465m-12.76 2.908.2926-.1236.1465-.0621.0485-.0618.0975-.0309.1466-.0618.1462-.0618.0488-.0618.0978-.0309.146-.0621.1465-.0618.146-.0618.1465-.062.0485-.0618.0978-.0309.1948-.0621.049-.0309.0487-.0309.1466-.0618.1947-.0618.0978-.0618.0485-.0618.0978-.0309.0975-.0312.0972-.0309.0978-.0618.1466-.0618.1463-.062.1462-.0618.0485-.0618.0978-.0312.1465-.0618.2926-.1239.1462-.0618.1466-.0618.146-.0618.1465-.0618.0975-.0618.146-.062.0491-.0618.0975-.0309.1462-.0618.1463-.0621.1463-.0618.1465-.0618.0973-.0621.1462-.0618.1466-.0618.146-.0618.1465-.0618.0978-.0617m-48.33 22.24.1947-.0927.1465-.0618.1463-.062.0978-.0309.1463-.0618.1462-.093.1466-.0927.1947-.0618.2929-.1236.0977-.0621.146-.0618.1466-.0926.1947-.0621.2928-.1236.146-.093.1466-.0618.0978-.0621.1462-.0309.1463-.0618.1463-.0927.2925-.1235.1466-.093.195-.0618.2925-.1239.1953-.1236.2926-.1239.2925-.1235.2928-.1548.2926-.1236.0975-.0309.1459-.0621.1466-.0618.1463-.093.2925-.1235.2443-.1239.5851-.2472.195-.1239.2926-.1238.244-.1236.2926-.1239.2925-.1236.2441-.1236.2925-.1239.2438-.1238.0978-.0618.0972-.0309.2928-.1239.2438-.1236.2928-.1236.2438-.093.2441-.1236.2435-.1238.2925-.1239.2444-.1236.2434-.093.2441-.1236.4879-.2474.2434-.0927.2444-.1239.2435-.1239.2438-.0927.0978-.0618.1462-.0618.2438-.0926.0975-.0621.1463-.0618.2441-.0927.2437-.1239.2438-.1239.2441-.0927.1465-.062.0973-.0618.1953-.0927.2435-.0927.0975-.0618.1465-.0621.2438-.0927.195-.1239.2441-.0926.2438-.093.195-.1236.2441-.0927.195-.0927.0975-.0621.1463-.0618.2437-.0929.1953-.0927.0976-.0618.1459-.0621.1953-.0927.0976-.0309.0978-.0621.2925-.1236.0975-.0618.0972-.0309.2444-.0927.1947-.1238.1953-.093.2435-.0927.1953-.093.1953-.0927.2438-.0927.1463-.0618.0975-.0618.195-.0929.1953-.0927.1948-.093.2443-.0927.1948-.093.0977-.0618.1463-.0618.1948-.0929.3906-.1854.39-.1857.2438-.0927.1953-.093.195-.0927.1951-.0929.1953-.0927.2435-.0927.195-.0927.1953-.093.195-.0927.195-.093.1953-.0927.1948-.0929.1953-.0927.2438-.093.1953-.0927.1462-.0927.0973-.0309.0978-.0309.1465-.0621.0975-.0618.0975-.0308.0485-.0309.1953-.093.3901-.1857.1953-.0927.0972-.0309.0975-.0309.1953-.1236.195-.062.1466-.0927.195-.093.195-.0927.1953-.0618.1948-.093.1953-.0927.1953-.093.146-.0617.39-.1854.0491-.0309.0975-.0312.0975-.0309.146-.0618.1465-.093.1953-.0927.1951-.093.1462-.0617.0975-.0618.2926-.0927.1465-.0927.1953-.093.1948-.0618.1462-.093.0978-.0618.0973-.0309.1465-.0618.0975-.062.0978-.0309.1948-.0618.1462-.0927.0978-.0618.0973-.0312.1465-.0618.0975-.0618.0978-.0309.146-.0618.195-.093.195-.0927.1466-.062.0975-.0618.0978-.0309.146-.0621.0975-.0618.0975-.0309.1466-.0618.0978-.0618.0972-.0309.1463-.0618.1465-.0621.0972-.0618.0978-.0309.1463-.0618.0975-.062.0972-.0309.1466-.0618.0487-.0621.0976-.0309.0978-.0309.0972-.0309.1465-.0927.1463-.0618.0972-.0618.0978-.0309.1466-.0621.0975-.0617.0975-.0309.146-.0621.049-.0618.0975-.0309.146-.0618.1953-.0621.0491-.0618.0975-.0309.1953-.0621.0972-.0618.0975-.0618.0978-.0309.146-.0617.0975-.0618.0975-.0309.0978-.0621.1948-.0618.1465-.0927.1463-.0621.195-.0618.1466-.093.1462-.0618.1463-.0617.0487-.0618.0976-.0309.1465-.0618.195-.0618.1463-.093.1466-.0618.1459-.0621.1466-.0618.0485-.0618.0978-.0309.1947-.062m-331.999998 152.8 1.609-.7427c5.611-2.587 11.23-5.166 16.83-7.764l1.366-.6188 1.413998-.6497c7.39-3.408 14.79-6.814 22.19-10.21l1.317-.6188 1.268-.5879c4.455-2.043 8.9-4.089 13.36-6.125l1.804-.8351 1.756-.8042c2.577-1.186 5.15-2.351 7.706-3.558l2.78-1.268 1.366-.6188 1.317-.6185 1.268-.5567 1.22-.5879 2.341-1.083 2.292-1.052 2.195-.9899 2.049-.9589 2-.9281 1.902-.8663 1.854-.8659 1.756-.8045 1.707-.7733 1.658-.7733.7807-.3711c1.513-.6355 3.028-1.416 4.536-2.042l.8291-.4019.9267-.4334c2.075-.9182 4.085-1.891 6.145-2.815l.8294-.4023.7317-.3401.6828-.3096.5851-.2783.5853-.2475 1.024-.464 2.146-.9899.9754-.4331 1.024-.4949.585-.2475.5854-.2784.6828-.3095c1.414-.7155 3.034-1.348 4.438-2.072l.6341-.2784.5363-.2474c.7945-.3892 1.651-.7371 2.439-1.145l.4879-.2165.5366-.2475c1.306-.546 2.441-1.175 3.756-1.701l.5366-.2474.4388-.2166c.6834-.2928 1.397-.6517 2.097-.959l.3903-.1856.4875-.2163.4879-.2478 1.122-.4946 1.073-.5261.5366-.2166.4391-.2165.39-.1857.3413-.1545.5853-.2475.5854-.2783.6832-.3096.39-.1856.4878-.2163.9267-.4332.9751-.464.4394-.1857.39-.1856.3413-.1545.2926-.1239.5365-.2475.4879-.2165.2435-.1239.3418-.1545.7314-.3401.8291-.3714.8294-.4019.8292-.3714 1.512-.7115 1.512-.6806.7313-.3404.7807-.3711.7316-.3092.6341-.3093.2926-.1239.195-.0927.4391-.1856.39-.1857.2438-.093.2441-.1236.5853-.2783 1.366-.6185.6339-.3096 1.219-.5876 1.219-.557 2.341-1.052 2.244-1.052 2.146-.9902 2.049-.928 1.951-.8972.9751-.4328.9266-.4332 1.805-.8353.8779-.4329.8781-.4022 1.707-.7736 1.658-.7424 1.561-.7424 1.561-.6803 1.463-.6806 1.463-.6806.6829-.3093.2925-.1547.3904-.1857.4388-.2163.4875-.2166.4391-.2168.4388-.1854.6832-.3093.6338-.2786.6831-.3093.6336-.2783.5853-.2784.2926-.1548.3418-.1547.3901-.1854.4388-.1857.7804-.3713.3418-.1545.2926-.1239.5363-.2474 1.17-.5259.5366-.2474.2925-.1239.2929-.1548.3412-.1545.7804-.371.3416-.1548.2925-.1239.4879-.2472.2925-.1238 1.366-.6188.2929-.1236.2435-.1239.9754-.4331.4878-.2472.2925-.1548.3901-.1548.3418-.1547.2926-.1236.2435-.1239.2443-.0927.195-.0927.2438-.1238.5854-.3093.3413-.1548.2925-.1236.4878-.2165.4388-.1857.4391-.1857.1953-.093.2435-.1235.2929-.1236.585-.3096.2928-.1236.2438-.0929.3906-.1854.2435-.0927.5366-.2478.5366-.2783.8779-.3711.2438-.1239.7807-.3713.2435-.1236.5853-.2475.2438-.1235.3903-.1857.195-.0621.1951-.0927.4878-.2475.2438-.0926.2438-.1239.3906-.1857.39-.1548.4879-.2162.4873-.2475.4878-.2166.4388-.2165.3419-.1857.39-.1545.4388-.1857.4879-.2165.8778-.4332.6826-.3092.4391-.1857.4388-.2166.4394-.2165.4388-.1857.1463-.0618.1953-.093.2925-.1236.39-.1853.4388-.2166.8295-.3714.4388-.1853.3903-.1857.1465-.0621.146-.0927.2929-.1239.78-.371.7804-.3405.7804-.371.2928-.1236.0975-.0621.1463-.0618.3416-.1547.39-.1857 1.463-.6806.7319-.3093.3413-.1854.3413-.1547.244-.1239.2926-.0927.6828-.3095.2926-.1854.3415-.1548.3411-.1548.3418-.1236.6826-.3092.6341-.3096.6344-.2783.2925-.1548.341-.1545.6344-.2783.5854-.2787.2925-.1545.3413-.1236.5854-.2786.5853-.2784.5851-.2474.2928-.1545.2926-.1239.5365-.2475.2926-.1547.2928-.1236.5851-.2475.5363-.2477.5369-.2472.2435-.1548.2928-.1236.2438-.1239.2928-.0929.5363-.2475.5366-.2472.4878-.2477.5364-.2166.4878-.2472.2925-.1548.3416-.1238.4879-.2475.4878-.2166.9751-.4328.4388-.2169.2441-.0926.2438-.1236.2928-.1548.2925-.1236.2441-.1239.195-.0927.2438-.1238.2438-.093.4388-.1854.1953-.0927.2437-.1239.5854-.2474.2438-.1239.195-.0927.4391-.1854.1953-.093.195-.1236.2438-.1238.2925-.093.2438-.1236.1953-.093.4388-.1854.3901-.1856.2443-.1236.2926-.1239.39-.1857.3901-.1853.244-.1239.2925-.0927.7801-.3714.2444-.1238.2435-.0927.7806-.3711.1948-.1239.2443-.0929.1948-.0927.1953-.0618.39-.1854.1953-.1239.2435-.093.1953-.0926.1951-.0618.195-.093.244-.1236.3901-.1857.1463-.0618.1953-.0927.1947-.1238.2444-.093.1459-.0927.1951-.0618.195-.093.2441-.0927.1462-.0618.195-.0927.1954-.1238.2437-.0927.1953-.093.1463-.0618.1463-.0621.39-.1854.2438-.0927.195-.0929.1466-.0618.39-.1857.3413-.1548.3903-.1856.3416-.1545.3901-.1857.3413-.1545.39-.1857.1466-.0929.1462-.0618.195-.0927.1954-.0618.3412-.1548.3904-.1857.6828-.3095.3413-.1545.1466-.0927.1463-.0618.1947-.0929.1953-.0618.1463-.093.1462-.0618.1953-.0618.1948-.093.1953-.0927.1463-.0927.2928-.1236.146-.062.1953-.0927.1465-.093.146-.0618.195-.093.1953-.0618.3416-.1548.2925-.1235.3411-.1545.1953-.093.1465-.0927.0972-.0621.1463-.0618.1466-.0618.195-.0929.3416-.1545.2925-.1236.1465-.0621.1948-.0927.2928-.1548.2925-.1238.1463-.0618.195-.0618.2928-.1548.2926-.1236.2925-.1548"
         stroke="#e30016"
         id="path43" />
    </g>
    <g
       stroke-width="2"
       id="g46">
      <path
         d="m45.940482 222.06583h2.146c9.997-.1341 20-.0913 30-.2166h1.707m301.699998-206.4v-4.639m-.1145 5.133.1145-.4947m-.3594 1.578.2444-1.083m-11.22 42.38.0488-.2166.0975-.2165.049-.1857.0488-.2166.0488-.2474.0975-.2784.1462-.557.1466-.5255.1947-.5262.1463-.5567.0978-.2783.0488-.2475.0977-.4331.0973-.2166.0487-.2166.1466-.5258.1947-.5258.2928-1.083.146-.5567.0978-.2786.0488-.2472.0978-.4331.0975-.1857.0487-.2166.0485-.2474.0978-.2784.1463-.5567.2925-1.052.1466-.5258.195-.5567.146-.557.0978-.2784.0487-.2475.0978-.4331.0485-.1854.049-.2165.0485-.2478.0975-.2781.1466-.557.2925-1.052.2928-1.083.146-.5567.0975-.2784.0491-.2474.0975-.4332.0978-.1856.0481-.2166.0491-.2475.0975-.2783.1463-.557.2925-1.083.2443-1.052.2926-1.083.2925-1.052.195-.866.0488-.2477.0972-.2784.1466-.5567.244-1.052.2926-1.082.2925-1.052.2441-1.083.1462-.5567.1463-.5261.1463-.5259.0975-.5258.195-.866.0491-.2477.0975-.2784.1462-.5567.2438-1.052.1463-.5567.1465-.5258.2438-1.052.2441-1.083.2435-1.083.2925-1.052m-281.499998 204.6 1.413998-.0309c7.381-.0949 14.81-.2341 22.19-.3713l1.317-.0309 1.268-.0312c4.458-.0564 8.905-.2324 13.36-.309l1.804-.062 1.756-.0618c2.568-.0117 5.143-.218 7.706-.2475l2.78-.1239 1.366-.0618 1.317-.0309 1.268-.062 1.22-.0618 2.341-.1236 2.292-.0927 2.195-.093 2.049-.1236 2-.1239 1.902-.0929 1.854-.0927 1.756-.1236 1.707-.1236 1.658-.093.7807-.0618c1.439-.0623 3.072-.2097 4.536-.3095l.8291-.0618.9267-.0618c2.046-.1743 4.102-.3101 6.145-.4949l.8294-.0621.7317-.0618.6828-.0618.5851-.0621.5853-.0309 1.024-.1236 1.073-.0927.5366-.0618.5366-.0309.9754-.1238 1.024-.093.585-.0618.5854-.0618.6828-.0621c1.499-.2338 2.957-.301 4.438-.5255l.6341-.0621.5363-.0618c.805-.1329 1.633-.1772 2.439-.3095l.4879-.0618.5366-.0618c1.214-.1914 2.544-.3093 3.756-.495l.5366-.0618.4388-.062c.7016-.0967 1.401-.1942 2.097-.309l.3903-.0621.4875-.0618.4879-.093 1.122-.1856 1.073-.1545.5366-.093.4391-.0618.39-.0618.3413-.0618 1.171-.1857.6832-.1238.39-.0618.4878-.0927.9267-.1857.9751-.1545.4394-.093.39-.0617.3413-.0618.2926-.0621.5365-.0927.4879-.0621.2435-.0618.3418-.0618.7314-.1548.8291-.1544.8294-.1857.8292-.1548 1.512-.3401 1.512-.3093.7313-.1548.7807-.1856.7316-.1548.6341-.1545.2926-.0618.195-.0618.4391-.093.39-.0927.4879-.1238.5853-.1548 1.366-.3093.6339-.1545 1.219-.3095 1.219-.3402 2.341-.6497 2.244-.6497 2.146-.6185 2.049-.6497 1.951-.6497.9751-.3401.9266-.3096 1.805-.6185 1.756-.6497 1.707-.6494 1.658-.6497 2.341-.9281.7806-.3401.7314-.3405.7316-.3092.7316-.3405.7316-.3092.6829-.3093.2925-.1548.3904-.1856.4388-.1854.4875-.2475.4391-.2166.4388-.1856.3419-.1857.3413-.1545.6338-.3095.6831-.3402.6336-.3092.5853-.3096.2926-.1239.3418-.1853.3901-.2166.4388-.2166.7804-.4328.3418-.1857.2926-.1548.5363-.3095 1.17-.6494.5366-.3093.2925-.1239.2929-.1856.3412-.2166.7804-.4329.3416-.2165.5363-.3405.2441-.1236.2925-.1856 1.366-.8663.2929-.1857.2435-.1236 1.22-.7732.2435-.1857.2925-.2166.3901-.2165.3418-.2166.2926-.2166.4878-.3092.195-.1548.2438-.1545.5854-.4331.3413-.2166.2925-.2166.2441-.1856.2437-.1545.4388-.3096.4391-.3092.1953-.1545.2435-.1857.2929-.1857.2925-.2474.2925-.2166.2928-.1857.2438-.1856.1953-.1236.1953-.1548.2435-.1854.2438-.2165.2928-.2166.5366-.4331.8779-.6497.2438-.1854.1953-.1857.1948-.1239.1953-.1547.1953-.1854.2435-.2166.5853-.4331.2438-.2166.1953-.1854.195-.1548.195-.1238.1951-.1857.2438-.1854.244-.2474.2438-.2166.2438-.1857.1953-.1857.1953-.1235.1947-.1548.1953-.1857.9752-.8663.4878-.4328.4388-.4022.1953-.1857.1466-.1236.1947-.1548.1953-.1856.1953-.1857.2435-.2475.4879-.4328.439-.4332.2435-.2474.1953-.1857.1948-.1548.2928-.3092.195-.1545.1953-.1857.2438-.2477.4388-.4329.4394-.4331.2435-.2475.1953-.1856.1463-.1545.1953-.1548.2925-.3093.195-.1856.195-.2475.4388-.4331.8295-.866.4388-.4334.195-.2472.1953-.1857.5854-.6188.1947-.1854.1953-.2477.39-.4329.7804-.8662.3901-.4332.3903-.4019.1466-.1857.1462-.1239.0975-.1547.1463-.1857.1463-.2163.5853-.6497.7316-.8354.7314-.8659.7319-.8663.3413-.4329.3413-.4022.244-.3093.1466-.1547.146-.1857.6828-.8663.6341-.866.6829-.8353.6826-.866.6341-.8663.6344-.8351.6335-.8662.6344-.866.5854-.8354.2925-.4331.3413-.4329.5854-.8662.5853-.8351.5851-.8663.5854-.8663.5365-.835.5854-.8663.5851-.8663.5363-.8351.5369-.8662.5363-.866.5366-.8354.5363-.8663.5366-.8659.4878-.8663.5364-.8351.4878-.8663.1465-.2474.146-.2784.1951-.2784.1465-.2474.4879-.8663.4878-.866.4873-.8662.4878-.8351.4388-.8663.4879-.8663.1465-.2474.2925-.5567.1463-.2475.2441-.4331.195-.4332.4876-.8662.4388-.8351.1953-.4332.2437-.4331.1463-.2475.2926-.5567.1465-.2475.2438-.4331.195-.4331.4391-.866.3903-.8663.1463-.2474.0975-.2784.1463-.2784.1462-.2474.2438-.4332.1953-.4331.4388-.8351.1953-.4025.0973-.2163.0975-.2475.1465-.2474.0978-.3093.146-.2786.1466-.2475.195-.4328.195-.4023.1953-.4022.0975-.2166.0973-.2474.1462-.2475.0978-.3093.1466-.2786.1459-.2472.1951-.4331.195-.4023.1953-.4022.0975-.2166.0972-.2471.0978-.2475.1466-.3096.1463-.2783.0972-.2475.1953-.4331.1947-.402.1953-.4022.0976-.2166.0977-.2474.0973-.2475.0975-.3093.1465-.2786.0978-.2475.1948-.4328.1953-.4023.1953-.4022.0972-.2166.0975-.2474.0978-.2472.0975-.3095.146-.2787.0975-.2472.1953-.4331.0973-.1857.0978-.2163.0975-.2477.0975-.2784.1463-.3092.0977-.2475.0976-.2477.0975-.2163.195-.4023.1463-.4022.1953-.4329.0972-.2477.0975-.2781.1466-.3095.0978-.2475.0975-.2166.0484-.2165.1951-.4332.0978-.2471.0972-.2787.1465-.2783.0976-.2475.0977-.2166.0485-.2165.195-.4329.0976-.2477.0978-.2784.1465-.2784.0972-.2474.1953-.4332.1463-.4331.1463-.4328.195-.4332.0978-.2477.0972-.2781.1463-.2787.0975-.2474.195-.4329.0491-.2165.0975-.2169.0975-.2472.0978-.3095.0972-.2784.0975-.2472.0978-.2168.0485-.2166.0978-.1856.0972-.2163.0975-.2475.0978-.2786.0975-.309.0975-.2478.0976-.2165.0487-.2166.1953-.4328.0975-.2478.1951-.5567.0975-.2475.0978-.2165.0484-.2163.1951-.4334.0975-.2472.1953-.557.0972-.2472.0978-.2169.0975-.4331.0975-.2163.0978-.2474.0972-.3096.0976-.2784.0978-.2474.0975-.2166.049-.2166.0972-.1853.0975-.2166.0978-.2478.2926-.835.195-.5568.0488-.2786.0975-.2472.0975-.2166.0487-.2165.0978-.1857.0975-.2166.0976-.2474.0977-.2784.0482-.3092.0978-.2475.0975-.2169.0976-.4328.0978-.2166.0972-.2474.1953-.5568.0975-.2477.0972-.2163.0978-.4331.0975-.2166.3901-1.052.1953-.557.049-.2783.0973-.2475.0975-.2166.0978-.4328.0975-.2169.0975-.2474.0485-.2784.0975-.2783.0978-.2475.0975-.2166.0975-.4331.0975-.2166.0975-.2474.2928-.8351.1951-.5261.1465-.5256.0975-.2168.0972-.4329.0978-.2166.1463-.5261.1948-.5258.1953-.5567.049-.2784.0975-.2474.0972-.4332.0978-.2165.0485-.2166.1466-.5258.195-.5259.1953-.557.0485-.278.0978-.2478.0972-.2166.0975-.4328.0978-.2166.1465-.5258.1948-.5261.1462-.5567.0978-.2787.0488-.2472.0485-.2165.0975-.2166.049-.2166.0975-.2165.1463-.5259.195-.5258.1466-.5567.0975-.2787.0487-.2474.0491-.2166.0972-.2163.0488-.1856.0975-.2169.049-.2472.0975-.2783.146-.557.1953-.5568.0488-.2783.0978-.2475m-290.299998 163.5h1.609c5.609-.0711 11.22-.1185 16.83-.1854l1.366-.0309"
         stroke="#b1c900"
         stroke-dasharray="9.9992 1.9998 9.9992 1.9998"
         id="path44" />
      <path
         d="m284.25048 16.83583.1459-.7115c.0562-.2166.1109-.4329.1644-.6495l18.64-4.622m-257.299998 209.9 2.146-.0927c10-.4762 20.01-.8513 30-1.392l1.707-.0927 1.609-.093c5.646-.3197 11.23-.7393 16.83-1.299l1.366-.1545 1.413998-.1547c7.426-.8048 14.85-1.704 22.19-2.784l1.317-.1857 1.268-.1854c4.548-.7441 8.91-1.531 13.36-2.506l1.804-.4023 1.756-.4022c2.606-.5672 5.188-1.24 7.706-1.949l2.78-.7733 1.366-.4023 1.317-.371 1.268-.4022 3.561-1.176 2.292-.7733 2.195-.7733 2.049-.7735 2-.7733 1.902-.7736 1.854-.7733 1.756-.7733 1.707-.8042 1.658-.7733.7807-.3713c1.624-.7376 3.003-1.499 4.536-2.289l.8291-.4637.9267-.5261c2.114-1.15 4.096-2.394 6.145-3.588l1.561-.9902c1.214-.7387 2.279-1.502 3.414-2.289l.5363-.3714.5366-.371c1.086-.7393 2.108-1.511 3.122-2.289l.5854-.464.6828-.5258c1.489-1.202 2.975-2.405 4.438-3.619l.6341-.5258.5363-.4644c.9283-.7211 1.583-1.44 2.439-2.165l.4879-.4643.5366-.5258c1.361-1.16 2.458-2.432 3.756-3.619l.5366-.5258.4388-.464c.7404-.7172 1.363-1.477 2.097-2.196l.3903-.464.4875-.5259c1.066-1.192 2.105-2.452 3.219-3.619l.4391-.5261.39-.4637c.6296-.7311 1.216-1.467 1.853-2.196l.3419-.4643.39-.5258c.9862-1.157 1.835-2.437 2.829-3.619l.39-.5258.3413-.4641c.5414-.7378 1.101-1.404 1.56-2.165l.3418-.464.3413-.4949c.8348-1.194 1.655-2.393 2.487-3.588l.3906-.5879 1.512-2.351 1.512-2.32.39-.5877c.6392-1.216 1.512-2.369 2.195-3.588l.2928-.4952.2926-.4641c.3875-.7171.8503-1.48 1.268-2.196l.2441-.4643.2925-.4949c.6114-1.204 1.424-2.366 1.951-3.588l.3413-.5876 1.219-2.351 1.219-2.32 2.341-4.671 2.244-4.671 2.146-4.671 2.049-4.671 1.951-4.671.9751-2.351.9266-2.32 1.805-4.671 1.756-4.671 1.707-4.671 1.658-4.671.7807-2.351.7804-2.32 1.561-4.64.7314-2.32 1.463-4.702.7316-2.32.1953-.5879c.3479-1.152.6378-2.287.9754-3.434l.1951-.6497.195-.7115c.5664-1.617.8705-3.216 1.414-4.826l.1947-.7112.1953-.65c.3169-1.122.5942-2.338.9754-3.434l.1463-.5879.6831-2.351.6336-2.32.1465-.5876c.332-1.14.5658-2.305.9267-3.434l.1465-.6497.1951-.7115c.3931-1.604.8421-3.187 1.219-4.795l.1951-.7112.1465-.6497c.3901-1.134.5593-2.292.8779-3.434l.1463-.5879 1.17-4.671.1465-.5876c.292-1.143.5415-2.29.8289-3.434l.1466-.6497"
         stroke="#e30079"
         stroke-dasharray="9.9992 1.9998 9.9992 1.9998"
         id="path45" />
      <path
         d="m266.15048 17.94583.5729-2.475-1.389-4.622m-219.399998 209.2 2.146-.1236c9.998-.6829 20.01-1.194 30-1.949l1.707-.1548 1.609-.1236c5.79-.4873 11.13-1.072 16.83-1.918l1.366-.2166 1.413998-.2165c7.462-1.18 14.89-2.451 22.19-3.991l1.317-.2784 1.268-.2784c4.622-1.018 8.972-2.282 13.36-3.65l1.804-.5568 1.756-.557c2.748-.8722 5.106-1.799 7.706-2.815l2.78-1.114 1.366-.5567 1.317-.5568 1.268-.5882 1.22-.5567 2.341-1.145 2.292-1.114 2.195-1.114 2.049-1.145 2-1.114 1.902-1.114 1.854-1.113 1.756-1.145 1.707-1.114 1.658-1.114.7807-.557c1.686-1.081 2.996-2.124 4.536-3.248l.8291-.6803.4391-.3713c2.477-1.942 4.728-3.995 7.072-6.001l.39-.3713.7317-.6803c1.193-1.023 2.32-2.182 3.414-3.248l.5363-.5568.5366-.557c1.115-1.055 2.079-2.166 3.122-3.248l.5854-.6806.3413-.3713c1.722-1.994 3.438-3.993 5.121-6.001l.2929-.3713.2925-.3405c1.004-1.274 1.966-2.517 2.926-3.805l.2438-.3402.244-.371c1.553-1.954 2.848-4.029 4.341-6.002l.2441-.3711.2435-.3404c.8424-1.278 1.66-2.554 2.488-3.836l.195-.3404.2438-.3711c1.234-1.984 2.418-4.002 3.707-5.97l.1951-.3714.195-.3401c.739-1.259 1.53-2.565 2.195-3.836l.1954-.3402.1947-.3713c1.095-1.985 2.14-3.982 3.219-5.97l.1953-.371.195-.3405c.622-1.282 1.288-2.555 1.902-3.836l.1465-.3405.3413-.7424c.8609-1.691 1.628-3.417 2.487-5.104l.3906-.866 3.024-6.744.39-.8663c.6616-1.716 1.484-3.42 2.195-5.135l.2928-.7424.146-.3405c.4952-1.268 1.068-2.53 1.512-3.805l.1466-.3405.2925-.7424c.6429-1.713 1.404-3.408 1.951-5.135l.3413-.8663 2.439-6.744 2.341-6.744 2.244-6.713 2.146-6.744 2.049-6.744 1.951-6.744.9751-3.372.9266-3.372 1.805-6.713 1.756-6.744 1.707-6.744 1.658-6.744"
         stroke="#102a83"
         stroke-dasharray="9.9992 1.9998 1.9998 1.9998"
         id="path46" />
    </g>
    <g
       stroke-dasharray="10.667733 1.066667 10.667733 1.066667"
       stroke-width="1.0667"
       id="g49">
      <path
         d="m45.940482 222.36583 2.146-.1857c10-.8898 20.07-1.514 30-2.722l1.707-.2163m128.399998-203.7-18.64-4.622m17.32 11.61.1462-.7424c.4017-2.083.7915-4.165 1.169-6.248m-128.399998 203.7 1.609-.2169c6.183-.8529 11.19-1.688 16.83-3.619l1.366-.4329 1.413998-.4952c7.825-2.712 15.27-5.867 22.19-9.435l1.317-.7424 1.268-.7424c5.046-2.976 9.512-6.542 13.36-10.15l1.804-1.639 1.756-1.67c2.898-2.789 5.274-5.646 7.706-8.6l2.78-3.557 1.366-1.794 1.317-1.825 1.268-1.825 1.22-1.856 2.341-3.743 2.292-3.774 2.195-3.836 2.049-3.898 2-3.929 1.902-3.991 1.854-4.022 1.756-4.052 1.707-4.114 1.658-4.145.3901-1.021c1.958-4.839 3.716-9.71 5.317-14.6l.4388-1.33.2438-.6806c2.599-8.323 5.092-16.64 7.462-24.99l.1953-.7118.3901-1.361c1.418-5.209 2.803-10.42 3.999-15.65l.2925-1.145.2928-1.144c1.278-5.336 2.51-10.68 3.658-16.02l.2926-1.423.1462-.7424c1.915-9 3.706-18.02 5.463-27.04l.1463-.7736"
         stroke="#5aa16e"
         id="path47" />
      <path
         d="m45.940482 222.36583 2.146-.0927c9.997-.4456 20.02-.688 30-1.33l1.707-.1238m338.299998-15.59h6.465m-12.76.3093h.1463l.0485-.0309h.5369l.0484-.0312h.6829l.0487-.0309h.5366l.0488-.0309h.7313l.0491-.0309h.6341l.0487-.0309h.6832l.0482-.0309h.4878l.0491-.0309h.6828l.0488-.0309h.6338l.0978-.0309m-48.33 2.227h.3412l.1463-.0309h.7316l.1463-.0309h.3903l.1466-.0309h.4875l.146-.0312h.6832l.1465-.0309h.4876l.146-.0309h.3418l.146-.0308h.7319l.146-.0309h.39l.1466-.0309h.6831l.146-.0312h.4391l.0975-.0309h.6341l.1466-.0309h.4385l.0975-.0309h.6829l.0978-.0309h.39l.0973-.0309h.6831l.0975-.0309h.6826l.1466-.0309h.3412l.0976-.0309h.6344l.0972-.0309h.6341l.0975-.0309h.3903l.0975-.0309h.6342l.0975-.0312h.6341l.1465-.0309h.5361l.0975-.0309h.5853l.0978-.0309h.5851l.0975-.0309h.5854l.1465-.0309h.536l.0978-.0311h.5854l.0975-.0309h.5363l.0978-.0309h.5363l.0975-.0309h.5854l.0975-.0309h.4876l.0978-.0309h.7801l.0978-.0312h.4875l.0978-.0309h.5366l.0975-.0309h.4879l.0972-.0309h.7316l.0975-.0309h.4876l.0978-.0309h.6828l.0973-.0309h.4878l.0975-.0309h.6832l.0972-.0309h.4878l.0488-.0312h.6831l.0976-.0309h.4878l.0482-.0309h.6344l.0975-.0309h.6829l.0484-.0309h.6344l.0975-.0309h.4388l.0978-.0309h.6339l.0487-.0309h.6344l.0482-.0309h.6344l.0975-.0311h.5854l.0978-.0309h.585l.0485-.0309h.5854l.0978-.0309h.585l.0488-.0309h.5853l.0488-.0309h.6344l.0482-.0312h.6831l.0975-.0309h.5851l.0975-.0309h.4879l.049-.0309h.5854l.0481-.0309h.5854m-331.999998 15.28 1.609-.0618c5.594-.3079 11.23-.5125 16.83-.8045l1.366-.0618 1.413998-.0618c7.397-.3444 14.79-.7001 22.19-1.021l1.317-.0618 1.268-.0618c4.452-.1851 8.914-.415 13.36-.5879l1.804-.0927 1.756-.093c2.544-.1148 5.174-.2154 7.706-.371l2.78-.1236 1.366-.0621 1.317-.0618 1.268-.0618 1.22-.0309 2.341-.1239 2.292-.0927 2.195-.0929 2.049-.0927 2-.0927 1.902-.093 1.854-.0927 1.756-.093 1.707-.0618 1.658-.0927.7807-.0311c1.517-.0618 3.003-.1803 4.536-.2163l.8291-.0309.9267-.0309c2.023-.1347 4.134-.1522 6.145-.2787l.8294-.0309.7317-.0309.6828-.0309 1.17-.0618 1.024-.0311 2.146-.1236.9754-.0309 1.024-.0618 1.17-.0618.6828-.0309c1.479-.0692 2.96-.1145 4.438-.1857l.6341-.0309.5363-.0312c.8226.0176 1.552-.1278 2.439-.0927l.4879-.0309.5366-.0309c1.252-.0623 2.504-.1193 3.756-.1856l.5366-.0312.4388-.0309c.699-.0003 1.395-.074 2.097-.0618l.3903-.0309.4875-.0309h.4879l1.122-.0618 1.073-.0618h.5366l.4391-.0309.39-.0309h.3413l.5853-.0312.5854-.0309h.3413l.3419-.0309.39-.0309h.4878l.9267-.0617.9751-.0312h.4394l.39-.0309.3413-.0309h.2926l.5365-.0309.4879-.0309h.2435l.3418-.0309.7314-.0312.8291-.0618 1.659-.0618 3.024-.1236.7313-.0309.7807-.0309.7316-.0309.6341-.0312h.2926l.195-.0309.4391-.0308h.39l.2438-.0309h.2441l.5853-.0309 1.366-.0621.6339-.0309 1.219-.0618 1.219-.0309 1.17-.0621 1.171-.0618 2.244-.0927 2.146-.093 2.049-.1235 2.926-.0927.9266-.0618 1.805-.093 1.756-.0927 1.707-.0621.8288-.0618.8291-.0309 1.561-.0621 1.561-.0618 2.926-.1235.3413-.0309.3416-.0309h.2925l.3904-.0309.4388-.0309h.4875l.4391-.0309h.7807l.3413-.0312.6338-.0309.6831-.0309.6336-.0309.5853-.0309.2926-.0309h.7319l.4388-.0312.3903-.0309h.7319l.2926-.0309.5363-.0309 1.17-.0618.5366-.0311.2925-.0309h.2929l.3412-.0309h.3901l.3903-.0309h.6341l.2438-.0309h.8779l.3416-.0309h.3413l.3415-.0312.2929-.0309h.2435l.9754-.0618h.7803l.3901-.0309h.3418l.2926-.0309.2435-.0309h.2443l.195-.0309h.5364l.2928-.0309h.6338l.4878-.0309.8779-.0618h.7317l.2925-.0312.2925-.0309h.5366l.1953-.0309h.4388l1.073-.0618.5851-.0309h.7319l.3901-.062h.4388l.2925-.0309h.9269l.195-.0309h.1951l.9754-.0618.3906-.0312h.8779l.4873-.0309.4878-.0309.4388-.0309.3419-.0309h.8288l.4879-.0309.8778-.0618.3413-.0309h.3413l.4391-.0309h.4388l.4394-.0309h.5851l.1953-.0309h.6825l.4388-.0312.8295-.0618.4388-.0309h.5368l.146-.0309h.2929l.39-.0309h.39l.7804-.0311.3901-.0309h.5369l.1462-.0309h.2438l.3416-.0309h.39l2.195-.093.3413-.0309h.3413l.244-.0309h.2926l.3413-.0309h.3415l.6341-.0309 1.366-.0621 2.536-.1236.5854-.0309.2925-.0309h.3413l.5854-.0309h.5853l1.17-.0618.5365-.0309.5854-.0308.5851-.0312.5363-.0309h.5369l2.146-.1236h.4878l.5364-.0312.244-.0309h.2438l.2925-.0309h.8295l1.463-.0927h.4388l.4879-.0312.2928-.0309h.2925l.2441-.0309h.6826l.4388-.0309.1953-.0309h1.073l.195-.0309.4391-.0309h.6341l.2925-.0309.2438-.0308h.8294l.1948-.0309.2443-.0309h.8779l.1948-.0309.244-.0312h.8779l.1947-.0309.2444-.0309h.6335l.1953-.0309h.6344l.7801-.0618h.4388l.3904-.0312.195-.0309h.6341l.1463-.0309h.6344l.1459-.0309h.7804l.195-.0309.1954-.0309h.5853l.1463-.0312h.6338l.195-.0309h.5366l.1463-.0309h.5853l.3416-.0309.3901-.0309h.3413l.1953-.0309h.4875l.195-.0311h.5366l.1954-.0309h.5363l.1462-.0309h.5366l.1466-.0309h.5363l.1463-.0309h.5363l.1953-.0309h.4391l.146-.0309h.4878l.195-.0309h.5369l.146-.0309h.4876l.1953-.0309h.39l.1466-.0309h.8291l.1465-.0309h.4876l.146-.0312h.4878l.1466-.0309h.4388l.1465-.0309h.146"
         stroke="#9edbf4"
         id="path48" />
      <path
         d="m218.05048 23.38583.0975-.6494c.4431-2.421.8705-4.845 1.29-7.27l7.98-4.622m-181.499998 211.5 2.146-.0927c9.993-.4505 20-.9522 30-1.361l1.707-.0929 1.609-.1239c5.864-.4102 11.18-.9227 16.83-2.073l1.366-.2781 1.413998-.3095c7.611-1.641 15.11-3.544 22.19-5.97l1.317-.4641 1.268-.464c4.92-1.933 9.272-4.205 13.36-6.805l1.804-1.114 1.756-1.145c2.888-1.884 5.197-3.866 7.706-5.939l2.78-2.506 1.366-1.268 1.317-1.299 1.268-1.299 1.22-1.299 2.341-2.692 2.292-2.722 2.195-2.753 2.049-2.815 2-2.846 1.902-2.908 1.854-2.939 1.756-3.001 1.707-3.032 1.658-3.062.3901-.7733c1.971-3.569 3.727-7.184 5.317-10.83l.4388-.9899.4391-1.052c2.537-5.865 4.775-11.79 7.072-17.69l.39-1.082.3901-1.021c1.412-3.949 2.817-7.899 3.999-11.88l.2925-.866.2928-.8663c1.284-4.066 2.499-8.139 3.658-12.22l.2926-1.113.3413-1.176c1.732-6.518 3.466-13.02 5.121-19.55l.2929-1.206.2925-1.114c1.047-4.26 1.997-8.505 2.926-12.78l.2438-1.145.244-1.237c1.547-6.868 2.87-13.76 4.341-20.63l.2441-1.268.2435-1.176c.8867-4.659 1.767-9.318 2.585-13.98l.0978-.6188"
         stroke="#a4027c"
         id="path49" />
    </g>
  </g>
  <g
     transform="translate(0 -2)"
     id="g74">
    <g
       fill="#9edbf4"
       id="g55">
      <path
         d="m428.54425 207.1557v4.1792h-.79102v-4.1792h-.66796v-.57568h.66796v-.53614q0-.65039.28565-.93603.28564-.28565.87451-.28565.32959 0 .55811.0527v.60205q-.19776-.0352-.35157-.0352-.30322 0-.43945.15381-.13623.15381-.13623.55811v.42627h.92725v.57568z"
         id="path50" />
      <path
         d="m430.02 209q0-1.27.39551-2.2808.3999-1.0107 1.2261-1.9028h.76465q-.82178.91406-1.2085 1.9424-.38232 1.0283-.38232 2.25 0 1.2173.37793 2.2412.38232 1.0239 1.2129 1.9512h-.76465q-.83057-.89648-1.2261-1.9072-.39551-1.0151-.39551-2.2764z"
         id="path51" />
      <!-- <path
         d="m436.63019 210.02094q0 .67236-.50977 1.0371-.50537.36475-1.41943.36475-.8877 0-1.37109-.29004-.47901-.29443-.62403-.91406l.69873-.13623q.10108.38232.41748.5625.31641.17578.87891.17578.60205 0 .87891-.18457.28125-.18457.28125-.55371 0-.28125-.19336-.45703-.19336-.17578-.62403-.29004l-.56689-.14942q-.68115-.17578-.97119-.34277-.28565-.17139-.44825-.41309-.16259-.24169-.16259-.59326 0-.65039.46142-.98877.46582-.34277 1.35352-.34277.78662 0 1.24804.27686.46583.27685.58887.88769l-.71191.0879q-.0659-.3164-.35596-.4834-.28564-.17138-.76904-.17138-.53613 0-.79102.16259-.25488.1626-.25488.49219 0 .20215.10547.33399.10547.13183.31201.22412.20654.0923.87012.25488.62842.1582.90527.29443.27686.13184.43506.29444.1626.16259.25049.37793.0879.21093.0879.4834z"
         id="path52" /> -->
      <path
         d="m439.39 209.01q0 1.27-.3999 2.2808-.39551 1.0107-1.2217 1.9028h-.76465q.82617-.92285 1.2085-1.9424.38233-1.0239.38233-2.25t-.38672-2.25q-.38232-1.0239-1.2041-1.9424h.76465q.83056.89648 1.2261 1.9116.39551 1.0107.39551 2.272z"
         id="path53" />
      <path
         d="m440.39 207.57v-.65039h4.3726v.65039zm0 2.25v-.65039h4.3726v.65039z"
         id="path54" />
      <!-- <path
         d="m449.38312 210.02094q0 .67236-.50977 1.0371-.50537.36475-1.41943.36475-.8877 0-1.3711-.29004-.479-.29443-.62402-.91406l.69873-.13623q.10108.38232.41748.5625.31641.17578.87891.17578.60205 0 .8789-.18457.28125-.18457.28125-.55371 0-.28125-.19335-.45703-.19336-.17578-.62403-.29004l-.56689-.14942q-.68115-.17578-.97119-.34277-.28565-.17139-.44825-.41309-.16259-.24169-.16259-.59326 0-.65039.46142-.98877.46582-.34277 1.35352-.34277.78662 0 1.24804.27686.46582.27685.58887.88769l-.71191.0879q-.0659-.3164-.35596-.4834-.28564-.17138-.76904-.17138-.53614 0-.79102.16259-.25488.1626-.25488.49219 0 .20215.10547.33399.10547.13183.31201.22412.20654.0923.87012.25488.62841.1582.90527.29443.27686.13184.43506.29444.1626.16259.25049.37793.0879.21093.0879.4834z"
         id="path55" /> -->
      <text font-size="8" y="211" x="433">x</text>
      <text font-size="8" y="211" x="447">x</text>
    </g>
    <g
       fill="#ab417f"
       id="g61">
      <path
         d="m428.54425 190.04892v4.1792h-.79102v-4.1792h-.66796v-.57568h.66796v-.53614q0-.65039.28565-.93603.28564-.28565.87451-.28565.32959 0 .55811.0527v.60205q-.19776-.0352-.35157-.0352-.30322 0-.43945.15381-.13623.15381-.13623.55811v.42627h.92725v.57568z"
         id="path56" />
      <path
         d="m430.02 191.89q0-1.27.39551-2.2808.3999-1.0108 1.2261-1.9028h.76465q-.82178.91407-1.2085 1.9424-.38232 1.0283-.38232 2.25 0 1.2173.37793 2.2412.38232 1.0239 1.2129 1.9512h-.76465q-.83057-.89648-1.2261-1.9072-.39551-1.0151-.39551-2.2764z"
         id="path57" />
      <!-- <path
         d="m436.63019 192.91415q0 .67237-.50977 1.03711-.50537.36475-1.41943.36475-.8877 0-1.37109-.29004-.47901-.29443-.62403-.91406l.69873-.13623q.10108.38232.41748.5625.31641.17578.87891.17578.60205 0 .87891-.18457.28125-.18457.28125-.55371 0-.28125-.19336-.45703-.19336-.17579-.62403-.29004l-.56689-.14942q-.68115-.17578-.97119-.34277-.28565-.17139-.44825-.41309-.16259-.2417-.16259-.59326 0-.65039.46142-.98877.46582-.34277 1.35352-.34277.78662 0 1.24804.27685.46583.27686.58887.8877l-.71191.0879q-.0659-.31641-.35596-.4834-.28564-.17138-.76904-.17138-.53613 0-.79102.16259-.25488.1626-.25488.49219 0 .20215.10547.33398.10547.13184.31201.22413.20654.0923.87012.25488.62842.1582.90527.29443.27686.13184.43506.29444.1626.16259.25049.37793.0879.21093.0879.48339z"
         id="path58" /> -->
      <path
         d="m439.39 191.91q0 1.27-.3999 2.2808-.39551 1.0107-1.2217 1.9028h-.76465q.82617-.92285 1.2085-1.9424.38233-1.0239.38233-2.25t-.38672-2.25q-.38232-1.0239-1.2041-1.9424h.76465q.83056.89649 1.2261 1.9116.39551 1.0107.39551 2.272z"
         id="path59" />
      <path
         d="m440.39 190.47v-.65039h4.3726v.65039zm0 2.25v-.65039h4.3726v.65039z"
         id="path60" />
      <!-- <path
         d="m449.38312 192.91415q0 .67237-.50977 1.03711-.50537.36475-1.41943.36475-.8877 0-1.3711-.29004-.479-.29443-.62402-.91406l.69873-.13623q.10108.38232.41748.5625.31641.17578.87891.17578.60205 0 .8789-.18457.28125-.18457.28125-.55371 0-.28125-.19335-.45703-.19336-.17579-.62403-.29004l-.56689-.14942q-.68115-.17578-.97119-.34277-.28565-.17139-.44825-.41309-.16259-.2417-.16259-.59326 0-.65039.46142-.98877.46582-.34277 1.35352-.34277.78662 0 1.24804.27685.46582.27686.58887.8877l-.71191.0879q-.0659-.31641-.35596-.4834-.28564-.17138-.76904-.17138-.53614 0-.79102.16259-.25488.1626-.25488.49219 0 .20215.10547.33398.10547.13184.31201.22413.20654.0923.87012.25488.62841.1582.90527.29443.27686.13184.43506.29444.1626.16259.25049.37793.0879.21093.0879.48339z"
         id="path61" /> -->
      <text font-size="8" y="193" x="433">x</text>
      <text font-size="8" y="193" x="447">x</text>
    </g>
    <g
       fill="#009035"
       id="g67">
      <path
         d="m428.54425 155.80463v4.1792h-.79102v-4.1792h-.66796v-.57569h.66796v-.53613q0-.65039.28565-.93604.28564-.28564.87451-.28564.32959 0 .55811.0527v.60206q-.19776-.0352-.35157-.0352-.30322 0-.43945.15381-.13623.15381-.13623.5581v.42627h.92725v.57569z"
         id="path62" />
      <path
         d="m430.02 157.65q0-1.27.39551-2.2808.3999-1.0107 1.2261-1.9028h.76465q-.82178.91406-1.2085 1.9424-.38232 1.0283-.38232 2.25 0 1.2173.37793 2.2412.38232 1.0239 1.2129 1.9512h-.76465q-.83057-.89649-1.2261-1.9072-.39551-1.0151-.39551-2.2764z"
         id="path63" />
      <!-- <path
         d="m436.63019 158.66986q0 .67236-.50977 1.03711-.50537.36475-1.41943.36475-.8877 0-1.37109-.29004-.47901-.29444-.62403-.91407l.69873-.13623q.10108.38233.41748.5625.31641.17579.87891.17579.60205 0 .87891-.18457.28125-.18458.28125-.55372 0-.28125-.19336-.45703-.19336-.17578-.62403-.29004l-.56689-.14941q-.68115-.17578-.97119-.34277-.28565-.17139-.44825-.41309-.16259-.2417-.16259-.59326 0-.65039.46142-.98877.46582-.34277 1.35352-.34277.78662 0 1.24804.27685.46583.27686.58887.8877l-.71191.0879q-.0659-.31641-.35596-.4834-.28564-.17139-.76904-.17139-.53613 0-.79102.1626-.25488.1626-.25488.49219 0 .20215.10547.33398.10547.13184.31201.22412.20654.0923.87012.25489.62842.1582.90527.29443.27686.13184.43506.29443.1626.1626.25049.37793.0879.21094.0879.4834z"
         id="path64" /> -->
      <path
         d="m439.39 157.66q0 1.27-.3999 2.2808-.39551 1.0108-1.2217 1.9028h-.76465q.82617-.92285 1.2085-1.9424.38233-1.0239.38233-2.25t-.38672-2.25q-.38232-1.0239-1.2041-1.9424h.76465q.83056.89649 1.2261 1.9116.39551 1.0107.39551 2.272z"
         id="path65" />
      <path
         d="m440.39 156.22v-.65039h4.3726v.65039zm0 2.25v-.65039h4.3726v.65039z"
         id="path66" />
      <!-- <path
         d="m449.38312 158.66986q0 .67236-.50977 1.03711-.50537.36475-1.41943.36475-.8877 0-1.3711-.29004-.479-.29444-.62402-.91407l.69873-.13623q.10108.38233.41748.5625.31641.17579.87891.17579.60205 0 .8789-.18457.28125-.18458.28125-.55372 0-.28125-.19335-.45703-.19336-.17578-.62403-.29004l-.56689-.14941q-.68115-.17578-.97119-.34277-.28565-.17139-.44825-.41309-.16259-.2417-.16259-.59326 0-.65039.46142-.98877.46582-.34277 1.35352-.34277.78662 0 1.24804.27685.46582.27686.58887.8877l-.71191.0879q-.0659-.31641-.35596-.4834-.28564-.17139-.76904-.17139-.53614 0-.79102.1626-.25488.1626-.25488.49219 0 .20215.10547.33398.10547.13184.31201.22412.20654.0923.87012.25489.62841.1582.90527.29443.27686.13184.43506.29443.1626.1626.25049.37793.0879.21094.0879.4834z"
         id="path67" /> -->
      <text font-size="8" y="159" x="433">x</text>
      <text font-size="8" y="159" x="447">x</text>
    </g>
    <g
       fill="#009ee0"
       id="g73">
      <path
         d="m428.54425 87.284737v4.179199h-.79102v-4.179199h-.66796v-.575684h.66796v-.536133q0-.65039.28565-.936035.28564-.285644.87451-.285644.32959 0 .55811.05273v.602051q-.19776-.03516-.35157-.03516-.30322 0-.43945.153809-.13623.153809-.13623.558106v.426269h.92725v.575684z"
         id="path68" />
      <path
         d="m430.02 89.126q0-1.27.39551-2.2808.3999-1.0107 1.2261-1.9028h.76465q-.82178.91406-1.2085 1.9424-.38232 1.0283-.38232 2.25 0 1.2173.37793 2.2412.38232 1.0239 1.2129 1.9512h-.76465q-.83057-.89648-1.2261-1.9072-.39551-1.0151-.39551-2.2764z"
         id="path69" />
      <!-- <path
         d="m436.63019 90.149971q0 .672363-.50977 1.037109-.50537.364746-1.41943.364746-.8877 0-1.37109-.290039-.47901-.294433-.62403-.914062l.69873-.136231q.10108.382325.41748.5625.31641.175782.87891.175782.60205 0 .87891-.184571.28125-.18457.28125-.553711 0-.28125-.19336-.457031-.19336-.175781-.62403-.290039l-.56689-.149414q-.68115-.175781-.97119-.342773-.28565-.171387-.44825-.413086-.16259-.2417-.16259-.593262 0-.650391.46142-.98877.46582-.342773 1.35352-.342773.78662 0 1.24804.276855.46583.276856.58887.887696l-.71191.08789q-.0659-.316406-.35596-.483398-.28564-.171387-.76904-.171387-.53613 0-.79102.162598-.25488.162598-.25488.492187 0 .202149.10547.333985.10547.131836.31201.224121.20654.09229.87012.254883.62842.158203.90527.294433.27686.131836.43506.294434.1626.162598.25049.37793.0879.210937.0879.483398z"
         id="path70" /> -->
      <path
         d="m439.39 89.144q0 1.27-.3999 2.2808-.39551 1.0107-1.2217 1.9028h-.76465q.82617-.92285 1.2085-1.9424.38233-1.0239.38233-2.25t-.38672-2.25q-.38232-1.0239-1.2041-1.9424h.76465q.83056.89648 1.2261 1.9116.39551 1.0107.39551 2.272z"
         id="path71" />
      <path
         d="m440.39 87.702v-.65039h4.3726v.65039zm0 2.25v-.65039h4.3726v.65039z"
         id="path72" />
      <!-- <path
         d="m449.38312 90.149971q0 .672363-.50977 1.037109-.50537.364746-1.41943.364746-.8877 0-1.3711-.290039-.479-.294433-.62402-.914062l.69873-.136231q.10108.382325.41748.5625.31641.175782.87891.175782.60205 0 .8789-.184571.28125-.18457.28125-.553711 0-.28125-.19335-.457031-.19336-.175781-.62403-.290039l-.56689-.149414q-.68115-.175781-.97119-.342773-.28565-.171387-.44825-.413086-.16259-.2417-.16259-.593262 0-.650391.46142-.98877.46582-.342773 1.35352-.342773.78662 0 1.24804.276855.46582.276856.58887.887696l-.71191.08789q-.0659-.316406-.35596-.483398-.28564-.171387-.76904-.171387-.53614 0-.79102.162598-.25488.162598-.25488.492187 0 .202149.10547.333985.10547.131836.31201.224121.20654.09229.87012.254883.62841.158203.90527.294433.27686.131836.43506.294434.1626.162598.25049.37793.0879.210937.0879.483398z"
         id="path73" /> -->
      <text font-size="8" y="91" x="433">x</text>
      <text font-size="8" y="91" x="447">x</text>
    </g>
  </g>
  <g
     fill="none"
     stroke="#000"
     stroke-width=".9998"
     id="g81">
    <path
       d="m350.45 223.97v-1.64"
       id="path74" />
    <path
       d="m79.77 223.97v-1.64"
       id="path75" />
    <path
       d="m147.45 223.97v-1.64"
       id="path76" />
    <path
       d="m316.65 223.97v-1.64"
       id="path77" />
    <path
       d="m282.75 223.97v-1.64"
       id="path78" />
    <path
       d="m248.95 223.97v-1.64"
       id="path79" />
    <path
       d="m215.15 223.97v-1.64"
       id="path80" />
    <path
       d="m418.15 223.97v-1.64"
       id="path81" />
  </g>
  <text
     x="10.985815"
     y="220.50372"
     id="text81"><tspan
       font-family="Arial"
       font-size="10"
       id="tspan81">10</tspan></text>
  <text
     x="24.076715"
     y="215.33752"
     id="text82"><tspan
       font-family="Arial"
       font-size="10"
       id="tspan82">100</tspan></text>
  <text
     x=".985714"
     y="210.15613"
     id="text83"><tspan
       font-family="Arial"
       font-size="10"
       id="tspan83">1000</tspan></text>
  <text
     x=".571615"
     y="194.83081"
     id="text84"><tspan
       font-family="Arial"
       font-size="10"
       id="tspan84">1 million</tspan></text>
  <text
     x="3.350115"
     y="179.31772"
     id="text85"><tspan
       font-family="Arial"
       font-size="10"
       id="tspan85">1 billion</tspan></text>
  <text
     x="2.803314"
     y="163.80392"
     id="text86"><tspan
       font-family="Arial"
       font-size="10"
       id="tspan86">1 trillion</tspan></text>
  <text
     x="244.09322"
     y="236.63593"
     id="text87"><tspan
       font-family="Arial"
       font-size="10"
       id="tspan87">64</tspan></text>
  <text
     x="275.50021"
     y="236.63593"
     id="text88"><tspan
       font-family="Arial"
       font-size="10"
       id="tspan88">128</tspan></text>
  <text
     x="176.49452"
     y="236.63593"
     id="text89"><tspan
       font-family="Arial"
       font-size="10"
       id="tspan89">16</tspan></text>
  <text
     x="210.368"
     y="236.64105"
     id="text90"><tspan
       font-family="Arial"
       font-size="10"
       id="tspan90">32</tspan></text>
  <text
     x="309.33542"
     y="236.63593"
     id="text91"><tspan
       font-family="Arial"
       font-size="10"
       id="tspan91">256</tspan></text>
  <text
     x="343.20853"
     y="236.63593"
     id="text92"><tspan
       font-family="Arial"
       font-size="10"
       id="tspan92">512</tspan></text>
  <text
     x="374.43362"
     y="236.63593"
     id="text93"><tspan
       font-family="Arial"
       font-size="10"
       id="tspan93">1024</tspan></text>
  <text
     x="408.341"
     y="236.63593"
     id="text94"><tspan
       font-family="Arial"
       font-size="10"
       id="tspan94">2048</tspan></text>
  <g
     fill="none"
     stroke="#000"
     stroke-width=".9998"
     id="g105">
    <path
       d="m45.94 15.466h-2.585"
       id="path94" />
    <path
       d="m45.94 41.336h-2.585"
       id="path95" />
    <path
       d="m45.94 67.176h-2.585"
       id="path96" />
    <path
       d="m45.94 93.036h-2.585"
       id="path97" />
    <path
       d="m45.94 118.87h-2.585"
       id="path98" />
    <path
       d="m45.94 144.77h-2.585"
       id="path99" />
    <path
       d="m45.94 160.27h-2.585"
       id="path100" />
    <path
       d="m45.94 175.77h-2.585"
       id="path101" />
    <path
       d="m45.94 191.27h-2.585"
       id="path102" />
    <path
       d="m45.94 206.77h-21.92"
       id="path103" />
    <path
       d="m45.94 211.97h-2.585"
       id="path104" />
    <path
       d="m45.94 217.17h-21.92"
       id="path105" />
  </g>
  <g
     fill="#b1c900"
     transform="translate(0 -2)"
     id="g113">
    <path
       d="m364.77 7.7279v4.1792h-.79101v-4.1792h-.66797v-.57568h.66797v-.53613q0-.65039.28564-.93604.28565-.28564.87451-.28564.32959 0 .55811.052734v.60205q-.19775-.035156-.35156-.035156-.30323 0-.43946.15381t-.13623.55811v.42627h.92725v.57568z"
       id="path106" />
    <path
       d="m366.24 9.5693q0-1.27.39551-2.2808.3999-1.0107 1.2261-1.9028h.76465q-.82177.91406-1.2085 1.9424-.38233 1.0283-.38233 2.25 0 1.2173.37793 2.2412.38233 1.0239 1.2129 1.9512h-.76465q-.83056-.89648-1.2261-1.9072-.39551-1.0151-.39551-2.2764z"
       id="path107" />
    <!-- <path
       d="m372.85327 10.593176q0 .672363-.50976 1.037109-.50538.364746-1.41944.364746-.88769 0-1.37109-.290039-.47901-.294433-.62402-.914062l.69873-.136231q.10107.382325.41748.5625.3164.175782.8789.175782.60205 0 .87891-.184571.28125-.18457.28125-.553711 0-.28125-.19336-.457031-.19336-.175781-.62402-.290039l-.5669-.149414q-.68115-.1757813-.97119-.3427735-.28564-.1713867-.44824-.4130859-.1626-.2416992-.1626-.5932617 0-.6503907.46143-.9887696.46582-.3427734 1.35351-.3427734.78662 0 1.24805.2768555.46582.2768554.58887.8876953l-.71192.087891q-.0659-.3164063-.35596-.4833984-.28564-.1713868-.76904-.1713868-.53613 0-.79101.1625977-.25489.1625977-.25489.4921875 0 .2021484.10547.3339844.10547.1318359.31201.2241211.20655.092285.87012.2548828.62842.1582031.90527.2944336.27686.1318359.43506.2944336.1626.1625976.25049.3779288.0879.210938.0879.483399z"
       id="path108" /> -->
    <path
       d="m375.62 9.5868q0 1.27-.3999 2.2808-.39551 1.0107-1.2217 1.9028h-.76465q.82617-.92285 1.2085-1.9424.38232-1.0239.38232-2.25t-.38672-2.25q-.38232-1.0239-1.2041-1.9424h.76465q.83057.89648 1.2261 1.9116.39551 1.0107.39551 2.272z"
       id="path109" />
    <path
       d="m376.61 8.1454v-.65039h4.3726v.65039zm0 2.25v-.65039h4.3726v.65039z"
       id="path110" />
    <path
       d="m382.12 11.907v-.67236h1.5776v-4.7637l-1.3975.99756v-.74707l1.4634-1.0063h.72949v5.5195h1.5073v.67236z"
       id="path111" />
    <path
       d="m387.26 11.907v-.9624h.85694v.9624z"
       id="path112" />
    <path
       d="m389.62 11.907v-.67236h1.5776v-4.7637l-1.3975.99756v-.74707l1.4634-1.0063h.72949v5.5195h1.5073v.67236z"
       id="path113" />
   <text font-size="8" y="11.5" x="369">x</text>
  </g>
  <text
     x="427.24271"
     y="168.09273"
     id="text113"><tspan
       font-family="Arial"
       font-size="9"
       id="tspan113">ms per day</tspan></text>
  <g
     fill="#5aa16e"
     id="g119">
    <path
       d="m176.2 5.7279v4.1792h-.79101v-4.1792h-.66797v-.57568h.66797v-.53613q0-.65039.28564-.93604.28565-.28564.87451-.28564.32959 0 .55811.052734v.60205q-.19775-.035156-.35156-.035156-.30323 0-.43946.15381t-.13623.55811v.42627h.92725v.57568z"
       id="path114" />
    <path
       d="m177.67 7.5693q0-1.27.39551-2.2808.3999-1.0107 1.2261-1.9028h.76465q-.82178.91406-1.2085 1.9424-.38233 1.0283-.38233 2.25 0 1.2173.37793 2.2412.38232 1.0239 1.2129 1.9512h-.76465q-.83056-.89648-1.2261-1.9072-.39551-1.0151-.39551-2.2764z"
       id="path115" />
    <!-- <path
       d="m184.28157 8.5931761q0 .672363-.50977 1.037109-.50537.364746-1.41943.364746-.88769 0-1.37109-.290039-.47901-.294433-.62403-.914062l.69873-.136231q.10108.382325.41748.5625.31641.175782.87891.175782.60205 0 .87891-.184571.28125-.18457.28125-.553711 0-.28125-.19336-.457031-.19336-.175781-.62403-.290039l-.56689-.149414q-.68115-.1757813-.97119-.3427735-.28565-.1713867-.44824-.4130859-.1626-.2416992-.1626-.5932617 0-.6503907.46142-.9887696.46582-.3427734 1.35352-.3427734.78662 0 1.24805.2768555.46582.2768554.58886.8876953l-.71191.087891q-.0659-.3164063-.35596-.4833984-.28564-.1713868-.76904-.1713868-.53613 0-.79102.1625977-.25488.1625977-.25488.4921875 0 .2021484.10547.3339844.10547.1318359.31201.2241211.20655.092285.87012.2548828.62842.1582031.90527.2944336.27686.1318359.43506.2944336.1626.1625976.25049.3779288.0879.210938.0879.483399z"
       id="path116" /> -->
    <path
       d="m187.05 7.5868q0 1.27-.3999 2.2808-.39551 1.0107-1.2217 1.9028h-.76465q.82617-.92285 1.2085-1.9424.38232-1.0239.38232-2.25t-.38672-2.25q-.38232-1.0239-1.2041-1.9424h.76465q.83056.89648 1.2261 1.9116.39551 1.0107.39551 2.272z"
       id="path117" />
    <path
       d="m188.04 6.1454v-.65039h4.3726v.65039zm0 2.25v-.65039h4.3726v.65039z"
       id="path118" />
    <!-- <path
       d="m197.0345 8.5931761q0 .672363-.50977 1.037109-.50537.364746-1.41943.364746-.88769 0-1.37109-.290039-.47901-.294433-.62403-.914062l.69873-.136231q.10108.382325.41748.5625.31641.175782.87891.175782.60205 0 .87891-.184571.28125-.18457.28125-.553711 0-.28125-.19336-.457031-.19336-.175781-.62403-.290039l-.56689-.149414q-.68115-.1757813-.97119-.3427735-.28565-.1713867-.44824-.4130859-.1626-.2416992-.1626-.5932617 0-.6503907.46142-.9887696.46582-.3427734 1.35352-.3427734.78662 0 1.24805.2768555.46582.2768554.58886.8876953l-.71191.087891q-.0659-.3164063-.35596-.4833984-.28564-.1713868-.76904-.1713868-.53613 0-.79102.1625977-.25488.1625977-.25488.4921875 0 .2021484.10547.3339844.10547.1318359.31201.2241211.20654.092285.87012.2548828.62842.1582031.90527.2944336.27686.1318359.43506.2944336.1626.1625976.25049.3779288.0879.210938.0879.483399z"
       id="path119" /> -->
      <text font-size="8" y="9.5" x="181">x</text>
      <text font-size="8" y="9.5" x="195">x</text>
  </g>
  <g
     fill="#102a83"
     transform="translate(0 -2)"
     id="g125">
    <path
       d="m252.38 7.7279v4.1792h-.79102v-4.1792h-.66796v-.57568h.66796v-.53613q0-.65039.28565-.93604.28564-.28564.87451-.28564.32959 0 .55811.052734v.60205q-.19776-.035156-.35157-.035156-.30322 0-.43945.15381t-.13623.55811v.42627h.92725v.57568z"
       id="path120" />
    <path
       d="m253.86 9.5693q0-1.27.39551-2.2808.3999-1.0107 1.2261-1.9028h.76465q-.82178.91406-1.2085 1.9424-.38232 1.0283-.38232 2.25 0 1.2173.37793 2.2412.38232 1.0239 1.2129 1.9512h-.76465q-.83057-.89648-1.2261-1.9072-.39551-1.0151-.39551-2.2764z"
       id="path121" />
    <!-- <path
       d="m260.46947 10.593176q0 .672363-.50977 1.037109-.50537.364746-1.41943.364746-.8877 0-1.3711-.290039-.479-.294433-.62402-.914062l.69873-.136231q.10108.382325.41748.5625.31641.175782.87891.175782.60205 0 .8789-.184571.28125-.18457.28125-.553711 0-.28125-.19336-.457031-.19335-.175781-.62402-.290039l-.56689-.149414q-.68116-.1757813-.97119-.3427735-.28565-.1713867-.44825-.4130859-.16259-.2416992-.16259-.5932617 0-.6503907.46142-.9887696.46582-.3427734 1.35352-.3427734.78662 0 1.24804.2768555.46582.2768554.58887.8876953l-.71191.087891q-.0659-.3164063-.35596-.4833984-.28564-.1713868-.76904-.1713868-.53614 0-.79102.1625977-.25488.1625977-.25488.4921875 0 .2021484.10547.3339844.10547.1318359.31201.2241211.20654.092285.87012.2548828.62841.1582031.90527.2944336.27686.1318359.43506.2944336.1626.1625976.25049.3779288.0879.210938.0879.483399z"
       id="path122" /> -->
    <path
       d="m263.23 9.5868q0 1.27-.39991 2.2808-.3955 1.0107-1.2217 1.9028h-.76465q.82617-.92285 1.2085-1.9424.38233-1.0239.38233-2.25t-.38672-2.25q-.38233-1.0239-1.2041-1.9424h.76465q.83056.89648 1.2261 1.9116.39551 1.0107.39551 2.272z"
       id="path123" />
    <path
       d="m264.23 8.1454v-.65039h4.3726v.65039zm0 2.25v-.65039h4.3726v.65039z"
       id="path124" />
    <path
       d="m270.26 9.6967q0 .81738.33838 1.2612t.98877.44385q.51416 0 .82178-.20654.31201-.20654.42187-.52295l.69434.19775q-.42627 1.125-1.938 1.125-1.0547 0-1.6084-.62842-.54931-.62842-.54931-1.8677 0-1.1777.54931-1.8062.55371-.62842 1.5776-.62842 2.0962 0 2.0962 2.5269v.10547zm2.5752-.60645q-.0659-.75146-.38233-1.0942-.3164-.34717-.90966-.34717-.57569 0-.91407.38672-.33398.38232-.36035 1.0547z"
       id="path125" />
   <text font-size="8" y="11.5" x="257">x</text>
  </g>
  <!-- <path
     d="m329.94319 6.1323888q0 .3984126-.30206.6145449-.29946.2161323-.84109.2161323-.52601 0-.81245-.1718642-.28384-.1744683-.36977-.5416329l.41404-.080724q.0599.2265484.24738.3333125.18748.1041602.5208.1041602.35675 0 .5208-.1093682.16665-.1093682.16665-.3281045 0-.1666562-.11457-.2708164-.11458-.1041602-.36977-.1718643l-.33592-.088536q-.40362-.1041602-.57548-.2031123-.16926-.1015562-.26561-.2447764-.0964-.1432202-.0964-.3515405 0-.3853926.27342-.5859009.27603-.2031123.80203-.2031123.46612 0 .73954.1640522.27603.1640523.34894.5260088l-.42185.05208q-.0391-.1874883-.21092-.2864404-.16926-.1015562-.45571-.1015562-.31768 0-.46872.096348-.15103.096348-.15103.2916485 0 .1197842.0625.1979043.0625.07812.18488.1328042.12239.054684.5156.1510322.37237.093744.53642.1744683.16405.07812.2578.1744683.0963.096348.14842.2239443.0521.1249922.0521.2864405z"
     fill="#e30079"
     transform="translate(0 -2)"
     id="path126" /> -->
  <text font-size="8" y="7.1" x="327" fill="#e30079" >x</text>
  <text
     font-size="13.067"
     x="49.45483"
     y="30.219006"
     id="text126"><tspan
       font-family="Arial"
       font-size="13.333"
       id="tspan126">f(x)</tspan></text>
  <text
     x="201.09361"
     y="6.824713"
     id="text127"><tspan
       x="201.09361"
       y="42.215336"
       id="tspan127" /></text>
  <g
     transform="translate(0 -2)"
     id="g138">
    <!-- <path
       d="m200.82208 5.93763q0 .4980718-.37762.7682676-.37437.2701958-1.05149.2701958-.65758 0-1.01567-.2148545-.35484-.2181099-.46227-.6771172l.51761-.1009165q.0749.2832173.30926.4166875.23438.1302148.65107.1302148.44599 0 .65108-.1367255.20834-.1367256.20834-.4101768 0-.2083437-.14324-.3385586-.14323-.1302148-.46226-.2148545l-.41994-.1106826q-.50458-.1302148-.71944-.2539189-.2116-.1269595-.33205-.3060049-.12045-.1790454-.12045-.4394751 0-.4817949.34182-.7324584.34507-.253919 1.00265-.253919.58271 0 .92453.2050884.34507.2050884.43622.6575849l-.52737.065107q-.0488-.2343867-.26369-.3580908-.2116-.1269594-.56969-.1269594-.39715 0-.58596.1204487-.18882.1204487-.18882.3646015 0 .1497471.0781.2474082.0781.097661.23113.166024.15301.068363.64457.1888115.46552.1171933.6706.2181098.20509.097661.32229.2181099.12044.1204487.18555.2799619.0651.1562578.0651.3580908z"
       fill="#5aa16e"
       id="path127" /> -->
    <text font-size="7" y="6.9" x="198" fill="#5aa16e">x</text>
    <!-- <path
       d="m276.90992 5.93763q0 .4980718-.37762.7682676-.37437.2701958-1.05148.2701958-.65759 0-1.01568-.2148545-.35483-.2181099-.46226-.6771172l.5176-.1009165q.0749.2832173.30926.4166875.23439.1302148.65108.1302148.44598 0 .65107-.1367255.20834-.1367256.20834-.4101768 0-.2083437-.14323-.3385586-.14324-.1302148-.46226-.2148545l-.41995-.1106826q-.50458-.1302148-.71943-.2539189-.2116-.1269595-.33205-.3060049-.12045-.1790454-.12045-.4394751 0-.4817949.34181-.7324584.34507-.253919 1.00266-.253919.58271 0 .92452.2050884.34507.2050884.43622.6575849l-.52737.065107q-.0488-.2343867-.26368-.3580908-.2116-.1269594-.56969-.1269594-.39716 0-.58597.1204487-.18881.1204487-.18881.3646015 0 .1497471.0781.2474082.0781.097661.23113.166024.153.068363.64456.1888115.46552.1171933.67061.2181098.20509.097661.32228.2181099.12045.1204487.18556.2799619.0651.1562578.0651.3580908z"
       fill="#102a83"
       id="path128" /> -->
    <text font-size="7" y="6.9" x="274" fill="#102a83">x</text>
    <g
       fill="#e30079"
       id="g134">
      <path
         d="m305.39 7.7279v4.1792h-.79101v-4.1792h-.66797v-.57568h.66797v-.53613q0-.65039.28564-.93604.28565-.28564.87451-.28564.32959 0 .55811.052734v.60205q-.19776-.035156-.35156-.035156-.30323 0-.43946.15381t-.13623.55811v.42627h.92725v.57568z"
         id="path129" />
      <path
         d="m306.86 9.5693q0-1.27.39551-2.2808.3999-1.0107 1.2261-1.9028h.76465q-.82178.91406-1.2085 1.9424-.38232 1.0283-.38232 2.25 0 1.2173.37793 2.2412.38232 1.0239 1.2129 1.9512h-.76465q-.83056-.89648-1.2261-1.9072-.39551-1.0151-.39551-2.2764z"
         id="path130" />
      <!-- <path
         d="m313.47757 10.593176q0 .672363-.50977 1.037109-.50537.364746-1.41943.364746-.88769 0-1.37109-.290039-.47901-.294433-.62403-.914062l.69873-.136231q.10108.382325.41748.5625.31641.175782.87891.175782.60205 0 .87891-.184571.28125-.18457.28125-.553711 0-.28125-.19336-.457031-.19336-.175781-.62403-.290039l-.56689-.149414q-.68115-.1757813-.97119-.3427735-.28565-.1713867-.44824-.4130859-.1626-.2416992-.1626-.5932617 0-.6503907.46142-.9887696.46582-.3427734 1.35352-.3427734.78662 0 1.24805.2768555.46582.2768554.58886.8876953l-.71191.087891q-.0659-.3164063-.35596-.4833984-.28564-.1713868-.76904-.1713868-.53613 0-.79102.1625977-.25488.1625977-.25488.4921875 0 .2021484.10547.3339844.10547.1318359.31201.2241211.20654.092285.87012.2548828.62842.1582031.90527.2944336.27686.1318359.43506.2944336.1626.1625976.25049.3779288.0879.210938.0879.483399z"
         id="path131" /> -->
      <path
         d="m316.24 9.5868q0 1.27-.3999 2.2808-.39551 1.0107-1.2217 1.9028h-.76465q.82617-.92285 1.2085-1.9424.38232-1.0239.38232-2.25t-.38672-2.25q-.38232-1.0239-1.2041-1.9424h.76465q.83056.89648 1.2261 1.9116.39551 1.0107.39551 2.272z"
         id="path132" />
      <path
         d="m317.24 8.1454v-.65039h4.3726v.65039zm0 2.25v-.65039h4.3726v.65039z"
         id="path133" />
      <path
         d="m322.50833 11.907141v-.558106q.22412-.51416.54492-.905273.3252-.395508.68116-.7119142.35595-.3208008.70312-.5932618.35156-.2724609.63281-.5449218.28125-.272461.45264-.5712891.17578-.2988281.17578-.6767578 0-.5097656-.29883-.7910156-.29883-.28125-.83056-.28125-.50537 0-.83496.2768554-.3252.272461-.38233.769043l-.80859-.074707q.0879-.7426758.62842-1.1821289.54492-.4394532 1.39746-.4394532.93603 0 1.43701.4438477.50537.4394531.50537 1.2524414 0 .3603516-.16699.7163086-.1626.355957-.4878.7119141-.32519.355957-1.24365 1.1030273-.50537.4130859-.8042.7470699-.29883.32959-.43066.637207h3.22998v.672364z"
         id="path134" />
      <text font-size="8" y="11.5" x="310">x</text>
    </g>
    <!-- <path
       d="m397.23317 5.93763q0 .4980718-.37763.7682676-.37436.2701958-1.05148.2701958-.65759 0-1.01568-.2148545-.35483-.2181099-.46226-.6771172l.5176-.1009165q.0749.2832173.30926.4166875.23439.1302148.65108.1302148.44598 0 .65107-.1367255.20835-.1367256.20835-.4101768 0-.2083437-.14324-.3385586-.14324-.1302148-.46226-.2148545l-.41995-.1106826q-.50458-.1302148-.71943-.2539189-.2116-.1269595-.33205-.3060049-.12045-.1790454-.12045-.4394751 0-.4817949.34182-.7324584.34506-.253919 1.00265-.253919.58271 0 .92452.2050884.34507.2050884.43622.6575849l-.52737.065107q-.0488-.2343867-.26368-.3580908-.2116-.1269594-.56969-.1269594-.39716 0-.58597.1204487-.18881.1204487-.18881.3646015 0 .1497471.0781.2474082.0781.097661.23113.166024.153.068363.64456.1888115.46552.1171933.67061.2181098.20509.097661.32228.2181099.12045.1204487.18556.2799619.0651.1562578.0651.3580908z"
       fill="#b1c900"
       id="path135" /> -->
    <text font-size="7" y="6.9" x="394" fill="#b1c900">x</text>
    <path
       d="m453.8738 87.017949q0 .634797-.40367.989633-.40366.354835-1.15891.354835-.73571 0-1.1524-.348324-.41343-.348325-.41343-.989633 0-.449241.25717-.755246.25717-.306005.65759-.371113v-.01302q-.37437-.0879-.59248-.380878-.21486-.292984-.21486-.686884 0-.524114.39065-.849652.3939-.325537 1.05474-.325537.67712 0 1.06776.319027.3939.319026.3939.862673 0 .3939-.21811.686883-.21811.292984-.59573.367857v.01302q.43947.07162.68362.374367.24416.299495.24416.751992zm-.72269-2.161566q0-.778034-.85291-.778034-.41343 0-.63154.195322-.21486.195323-.21486.582712 0 .3939.22137.602243.22462.205089.63154.205089.41343 0 .62829-.188812.21811-.192067.21811-.61852zm.11393 2.106225q0-.426454-.25392-.641308-.25391-.21811-.71292-.21811-.44599 0-.69665.234387-.25067.231131-.25067.638052 0 .947313.96685.947313.47854 0 .71293-.227876.23438-.231131.23438-.732458z"
       fill="#009ee0"
       id="path136" />
    <path
       d="m452.6745 154.36925v1.03846h-.55341v-1.03846h-2.16157v-.45575l2.09972-3.0926h.61526v3.08609h.64456v.46226zm-.55341-2.88751q-.007.0195-.0911.17253-.0846.153-.12696.21486l-1.17519 1.73185-.17579.2409-.0521.0651h1.62118z"
       fill="#009035"
       id="path137" />
    <path
       d="m450.83051 190.85803v-.41343q.16603-.38088.40367-.67061.2409-.29298.50458-.52737.26369-.23764.52086-.43947.26043-.20183.46877-.40367.20835-.20183.33531-.4232.13021-.22136.13021-.50132 0-.37763-.22136-.58597-.22137-.20834-.61527-.20834-.37437 0-.61852.20508-.2409.20184-.28322.56969l-.59899-.0553q.0651-.55015.46552-.87569.40367-.32554 1.03521-.32554.69339 0 1.06451.32879.37436.32554.37436.92778 0 .26695-.1237.53063-.12045.26369-.36135.52737-.24089.26369-.92127.8171-.37436.306-.59573.55341-.22136.24415-.31902.47203h2.39269v.49807z"
       fill="#ab417f"
       id="path138" />
  </g>
  <g
     transform="translate(0 -2.9225)"
     id="g139">
    <text
       x="426.44806"
       y="68.938606"
       id="text138"><tspan
         font-family="Arial"
         font-size="9"
         id="tspan138">picoseconds</tspan></text>
    <text
       x="426.76447"
       y="79.711891"
       id="text139"><tspan
         font-family="Arial"
         font-size="9"
         id="tspan139">sincethebigbang</tspan></text>
  </g>
  <text
     x="406.8157"
     y="218.81538"
     id="text140"><tspan
       font-family="Arial"
       font-size="13.333"
       id="tspan140">x</tspan></text>
  <text
     x="18.89879"
     y="149.95996"
     id="text141"><tspan
       font-family="Arial"
       font-size="10"
       id="tspan141">10</tspan></text>
  <text
     x="29.450483"
     y="144.23029"
     id="text142"><tspan
       font-family="Arial"
       font-size="6.667"
       id="tspan142">15</tspan></text>
  <text
     x="144.68074"
     y="236.63593"
     id="text143"><tspan
       font-family="Arial"
       font-size="10"
       id="tspan143">8</tspan></text>
  <text
     x="111.00677"
     y="236.758"
     id="text144"><tspan
       font-family="Arial"
       font-size="10"
       id="tspan144">4</tspan></text>
  <text
     x="77.106255"
     y="236.758"
     id="text145"><tspan
       font-family="Arial"
       font-size="10"
       id="tspan145">2</tspan></text>
  <text
     x="43.532188"
     y="236.758"
     id="text146"><tspan
       font-family="Arial"
       font-size="10"
       id="tspan146">1</tspan></text>
  <g
     fill="#a4027c"
     transform="translate(0 -2)"
     id="g152">
    <path
       d="m213.31 7.7279v4.1792h-.79101v-4.1792h-.66797v-.57568h.66797v-.53613q0-.65039.28564-.93604.28564-.28564.87451-.28564.32959 0 .55811.052734v.60205q-.19776-.035156-.35157-.035156-.30322 0-.43945.15381t-.13623.55811v.42627h.92725v.57568z"
       id="path146" />
    <path
       d="m214.78 9.5693q0-1.27.39551-2.2808.3999-1.0107 1.2261-1.9028h.76465q-.82178.91406-1.2085 1.9424-.38232 1.0283-.38232 2.25 0 1.2173.37793 2.2412.38232 1.0239 1.2129 1.9512h-.76465q-.83057-.89648-1.2261-1.9072-.39551-1.0151-.39551-2.2764z"
       id="path147" />
    <!-- <path
       d="m221.39731 10.593176q0 .672363-.50977 1.037109-.50537.364746-1.41943.364746-.8877 0-1.37109-.290039-.47901-.294433-.62403-.914062l.69873-.136231q.10108.382325.41748.5625.31641.175782.87891.175782.60205 0 .87891-.184571.28125-.18457.28125-.553711 0-.28125-.19336-.457031-.19336-.175781-.62403-.290039l-.56689-.149414q-.68115-.1757813-.97119-.3427735-.28565-.1713867-.44825-.4130859-.16259-.2416992-.16259-.5932617 0-.6503907.46142-.9887696.46582-.3427734 1.35352-.3427734.78662 0 1.24805.2768555.46582.2768554.58886.8876953l-.71191.087891q-.0659-.3164063-.35596-.4833984-.28564-.1713868-.76904-.1713868-.53613 0-.79102.1625977-.25488.1625977-.25488.4921875 0 .2021484.10547.3339844.10547.1318359.31201.2241211.20654.092285.87012.2548828.62842.1582031.90527.2944336.27686.1318359.43506.2944336.1626.1625976.25049.3779288.0879.210938.0879.483399z"
       id="path148" /> -->
    <path
       d="m224.16 9.5868q0 1.27-.3999 2.2808-.39551 1.0107-1.2217 1.9028h-.76465q.82617-.92285 1.2085-1.9424.38233-1.0239.38233-2.25t-.38672-2.25q-.38232-1.0239-1.2041-1.9424h.76465q.83056.89648 1.2261 1.9116.39551 1.0107.39551 2.272z"
       id="path149" />
    <path
       d="m225.16 8.1454v-.65039h4.3726v.65039zm0 2.25v-.65039h4.3726v.65039z"
       id="path150" />
    <!-- <path
       d="m234.15024 10.593176q0 .672363-.50977 1.037109-.50537.364746-1.41943.364746-.8877 0-1.37109-.290039-.47901-.294433-.62403-.914062l.69873-.136231q.10108.382325.41748.5625.31641.175782.87891.175782.60205 0 .87891-.184571.28125-.18457.28125-.553711 0-.28125-.19336-.457031-.19336-.175781-.62403-.290039l-.56689-.149414q-.68115-.1757813-.97119-.3427735-.28565-.1713867-.44825-.4130859-.16259-.2416992-.16259-.5932617 0-.6503907.46142-.9887696.46582-.3427734 1.35352-.3427734.78662 0 1.24804.2768555.46583.2768554.58887.8876953l-.71191.087891q-.0659-.3164063-.35596-.4833984-.28564-.1713868-.76904-.1713868-.53613 0-.79102.1625977-.25488.1625977-.25488.4921875 0 .2021484.10547.3339844.10547.1318359.31201.2241211.20654.092285.87012.2548828.62842.1582031.90527.2944336.27686.1318359.43506.2944336.1626.1625976.25049.3779288.0879.210938.0879.483399z"
       id="path151" /> -->
    <path
       d="m236.05 10.163h-.65039l-.10547-4.4473h.86133zm-.76465 1.7446v-.8833h.85254v.8833z"
       id="path152" />
      <text font-size="8" y="11.5" x="218">x</text>
      <text font-size="8" y="11.5" x="231">x</text>
  </g>
  <g
     fill="#e30016"
     transform="translate(0 -2)"
     id="g158">
    <path
       d="m428.54425 50.793484v4.179199h-.79102v-4.179199h-.66796v-.575684h.66796v-.536133q0-.65039.28565-.936035.28564-.285644.87451-.285644.32959 0 .55811.05273v.602051q-.19776-.03516-.35157-.03516-.30322 0-.43945.153808-.13623.153809-.13623.558106v.426277h.92725v.575684z"
       id="path153" />
    <path
       d="m430.02 52.635q0-1.27.39551-2.2808.3999-1.0107 1.2261-1.9028h.76465q-.82178.91406-1.2085 1.9424-.38232 1.0283-.38232 2.25 0 1.2173.37793 2.2412.38232 1.0239 1.2129 1.9512h-.76465q-.83057-.89648-1.2261-1.9072-.39551-1.0151-.39551-2.2764z"
       id="path154" />
    <!-- <path
       d="m436.63019 53.658718q0 .672363-.50977 1.037109-.50537.364747-1.41943.364747-.8877 0-1.37109-.290039-.47901-.294434-.62403-.914063l.69873-.13623q.10108.382324.41748.5625.31641.175781.87891.175781.60205 0 .87891-.184571.28125-.18457.28125-.55371 0-.28125-.19336-.457032-.19336-.175781-.62403-.290039l-.56689-.149414q-.68115-.175781-.97119-.342773-.28565-.171387-.44825-.413086-.16259-.241699-.16259-.593262 0-.650391.46142-.988769.46582-.342774 1.35352-.342774.78662 0 1.24804.276856.46583.276855.58887.887695l-.71191.08789q-.0659-.316407-.35596-.483399-.28564-.171387-.76904-.171387-.53613 0-.79102.162598-.25488.162598-.25488.492188 0 .202148.10547.333984.10547.131836.31201.224121.20654.09228.87012.254883.62842.158203.90527.294433.27686.131836.43506.294434.1626.162598.25049.37793.0879.210937.0879.483398z"
       id="path155" /> -->
    <path
       d="m439.39 52.652q0 1.27-.3999 2.2808-.39551 1.0107-1.2217 1.9028h-.76465q.82617-.92285 1.2085-1.9424.38233-1.0239.38233-2.25t-.38672-2.25q-.38232-1.0239-1.2041-1.9424h.76465q.83056.89648 1.2261 1.9116.39551 1.0107.39551 2.272z"
       id="path156" />
    <path
       d="m440.39 51.211v-.65039h4.3726v.65039zm0 2.25v-.65039h4.3726v.65039z"
       id="path157" />
    <!-- <path
       d="m449.38312 53.658718q0 .672363-.50977 1.037109-.50537.364747-1.41943.364747-.8877 0-1.3711-.290039-.479-.294434-.62402-.914063l.69873-.13623q.10108.382324.41748.5625.31641.175781.87891.175781.60205 0 .8789-.184571.28125-.18457.28125-.55371 0-.28125-.19335-.457032-.19336-.175781-.62403-.290039l-.56689-.149414q-.68115-.175781-.97119-.342773-.28565-.171387-.44825-.413086-.16259-.241699-.16259-.593262 0-.650391.46142-.988769.46582-.342774 1.35352-.342774.78662 0 1.24804.276856.46582.276855.58887.887695l-.71191.08789q-.0659-.316407-.35596-.483399-.28564-.171387-.76904-.171387-.53614 0-.79102.162598-.25488.162598-.25488.492188 0 .202148.10547.333984.10547.131836.31201.224121.20654.09228.87012.254883.62841.158203.90527.294433.27686.131836.43506.294434.1626.162598.25049.37793.0879.210937.0879.483398z"
       id="path158" /> -->
    <text font-size="8" y="54.5" x="434">x</text>
      <text font-size="8" y="54.5" x="447">x</text>
  </g>
  <g
     fill="#e30016"
     transform="translate(0 -2)"
     id="g160">
    <path
       d="m451 51.603v-.49807h1.1687v-3.5288l-1.0352.73897v-.55341l1.084-.74548h.54039v4.0887h1.1166v.49807z"
       id="path159" />
    <path
       d="m457.65051 49.30756q0 1.149146-.40692 1.754645-.40366.605499-1.19472.605499-.79105 0-1.18821-.602244-.39715-.602244-.39715-1.7579 0-1.1817.38413-1.770922.38739-.589222 1.22076-.589222.81059 0 1.19473.595733.38738.595733.38738 1.764411zm-.59573 0q0-.992888-.23113-1.438874-.22788-.445986-.75525-.445986-.54039 0-.77803.439475-.23439.439475-.23439 1.445385 0 .976611.23765 1.429108.24089.452496.76175.452496.51761 0 .7585-.462263.2409-.462262.2409-1.419341z"
       id="path160" />
  </g>
</svg>
